g Cylinder001_v_009
v 0.1529092 0.1581323 -0.0392321
v 0.2207521 0.07080828 -0.0392321
v 0.005186093 -0.2489223 -0.0392321
v 0.0482577 0.1887247 -0.0392321
v -0.06169792 -0.2483348 -0.0392321
v -0.09025101 -0.2375613 -0.0392321
v 0.04907325 0.1912347 0.03920677
v -0.1211284 0.2409892 0.03920677
v -0.150215 -0.2193577 0.03920675
v -0.0915308 -0.2415001 0.03920677
v 0.003729532 -0.2505992 0.03920677
v -0.06911131 -0.2499593 0.03920677
v -0.1523532 -0.2141293 -0.0392321
v 0.2216885 0.07268064 0.03920677
v 0.1532402 0.1607839 0.03920677
v -0.1237225 0.2389992 -0.0392321
v -0.06169792 -0.2483348 -0.0392321
v 0.005186093 -0.2489223 -0.0392321
v -0.09025101 -0.2375613 -0.0392321
v -0.06911131 -0.2499593 0.03920677
v -0.06169792 -0.2483348 -0.0392321
v -0.0915308 -0.2415001 0.03920677
v -0.150215 -0.2193577 0.03920675
v -0.0915308 -0.2415001 0.03920677
v 0.003729532 -0.2505992 0.03920677
v -0.06911131 -0.2499593 0.03920677
v 0.04907325 0.1912347 0.03920677
v 0.0482577 0.1887247 -0.0392321
v -0.1523532 -0.2141293 -0.0392321
v -0.09025101 -0.2375613 -0.0392321
v -0.1523532 -0.2141293 -0.0392321
v -0.1211284 0.2409892 0.03920677
v -0.150215 -0.2193577 0.03920675
v -0.1237225 0.2389992 -0.0392321
v 0.0482577 0.1887247 -0.0392321
v -0.1211284 0.2409892 0.03920677
v -0.1237225 0.2389992 -0.0392321
v 0.04907325 0.1912347 0.03920677
v 0.1532402 0.1607839 0.03920677
v 0.1529092 0.1581323 -0.0392321
v 0.003729532 -0.2505992 0.03920677
v 0.2207521 0.07080828 -0.0392321
v 0.005186093 -0.2489223 -0.0392321
v 0.2216885 0.07268064 0.03920677
v 0.1529092 0.1581323 -0.0392321
v 0.2216885 0.07268064 0.03920677
v 0.1532402 0.1607839 0.03920677
v 0.2207521 0.07080828 -0.0392321
vt 0.7931939 0
vt 0.7642689 0
vt 0.6065497 0
vt 0.7942948 0
vt 0.5993263 0
vt 0.6006409 0
vt 0.1389126 0.9999999
vt 0.1402392 0.9999999
vt 0.3771213 0.9999999
vt 0.3791814 0.9999999
vt 0.0001368505 1.014811
vt 0.0001491546 0.9497705
vt 0.07172542 0.8272128
vt 0.765156 0.9999999
vt 0.7943392 0.9999999
vt 0.1416467 0
vt 0.07020004 0.95639
vt 0.07018874 1.016111
vt 0.07054792 0.8864662
vt 0 0.9066361
vt 0.07000652 0.9137095
vt 0.0004250908 0.8852451
vt 0.001537793 0.8292528
vt 0.5988516 0.9999999
vt 0.6056861 0.9999999
vt 0.5978193 0.9999999
vt 0.7954351 0.9999999
vt 0.1403062 0
vt 0.3748144 0
vt 0.3769944 0
vt 0.6671959 0
vt 0.2598838 0.07007043
vt 0.6717345 0.07007043
vt 0.2618032 0
vt 0.001924005 0.1599753
vt 0.07355106 0.002413111
vt 0.003495886 0
vt 0.07199542 0.1607339
vt 0.07104335 0.2576295
vt 0.000967501 0.2573217
vt 0 0.07003631
vt 0.3462704 0
vt 0.001968441 0
vt 0.348124 0.07003631
vt 0.09873466 0
vt 0.0008072662 0.07005621
vt 0.100423 0.07005619
vt 0 0
vn 0 0 -1
vn 0 0 -1
vn 0 0 -1
vn 0 0 -1
vn 0 0 -1
vn 0 0 -1
vn 0 0 1
vn 0 0 1
vn 0 0 1
vn 0 0 1
vn -0.008782779 -0.9997295 -0.02153475
vn -0.00878278 -0.9997295 -0.02153475
vn -0.352531 -0.9343169 -0.05266831
vn 0 0 1
vn 0 0 1
vn 0 0 -1
vn -0.00878278 -0.9997295 -0.02153475
vn -0.008782388 -0.9997295 -0.02153507
vn -0.352531 -0.9343169 -0.05266833
vn -0.3525309 -0.9343169 -0.05266832
vn -0.3525309 -0.9343169 -0.05266832
vn -0.3525306 -0.934317 -0.05266879
vn -0.3525313 -0.9343168 -0.05266813
vn 0 0 1
vn 0 0 1
vn 0 0 1
vn 0 0 1
vn 0 0 -1
vn 0 0 -1
vn 0 0 -1
vn -0.9975179 0.06302748 0.03139183
vn -0.9975179 0.06302748 0.03139184
vn -0.9975179 0.06302747 0.03139183
vn -0.9975179 0.06302749 0.03139182
vn 0.2804255 0.9592871 -0.03361212
vn 0.2804255 0.9592871 -0.03361212
vn 0.2804255 0.9592871 -0.03361212
vn 0.2804255 0.9592871 -0.03361214
vn 0.2804251 0.9592872 -0.03361215
vn 0.2804253 0.9592872 -0.03361238
vn 0.8291469 -0.5590202 0.003446166
vn 0.8291469 -0.5590202 0.003446166
vn 0.8291469 -0.5590202 0.003446166
vn 0.8291469 -0.5590202 0.003445836
vn 0.7894557 0.6133357 -0.02406526
vn 0.7894557 0.6133356 -0.02406526
vn 0.7894557 0.6133357 -0.02406526
vn 0.7894559 0.6133355 -0.02406567
g Cylinder001_v_009_0
f 2/2/2 3/3/3 1/1/1
f 1/1/1 3/3/3 4/4/4
f 3/3/3 5/5/5 4/4/4
f 4/4/4 5/5/5 6/6/6
f 8/8/8 9/9/9 7/7/7
f 10/10/10 7/7/7 9/9/9
f 12/12/12 17/17/17 11/11/11
f 18/18/18 11/11/11 17/17/17
f 21/21/21 20/20/20 19/19/19
f 19/19/19 20/20/20 13/13/13
f 20/20/20 22/22/22 13/13/13
f 22/22/22 23/23/23 13/13/13
f 26/26/26 25/25/25 24/24/24
f 14/14/14 15/15/15 25/25/25
f 25/25/25 15/15/15 24/24/24
f 24/24/24 15/15/15 27/27/27
f 30/30/30 29/29/29 28/28/28
f 16/16/16 28/28/28 29/29/29
f 33/33/33 32/32/32 31/31/31
f 34/34/34 31/31/31 32/32/32
f 37/37/37 36/36/36 35/35/35
f 36/36/36 38/38/38 35/35/35
f 38/38/38 39/39/39 35/35/35
f 39/39/39 40/40/40 35/35/35
f 43/43/43 42/42/42 41/41/41
f 44/44/44 41/41/41 42/42/42
f 47/47/47 46/46/46 45/45/45
f 48/48/48 45/45/45 46/46/46
