g Cylinder001_v_006
v 0.1102702 0.1219131 -0.03921305
v 0.1575204 0.07573402 -0.03921305
v -0.1342795 0.07573402 -0.03921305
v -0.1277636 0.08089243 -0.03921305
v -0.1343835 0.07608281 -0.03921305
v -0.1345589 0.07667172 -0.03921305
v -0.1345168 0.07680114 -0.03921305
v -0.1315151 0.07977586 -0.03921305
v -0.1306086 0.08040214 -0.03921305
v -0.1278586 0.05417497 -0.03921305
v -0.04839113 -0.1904006 -0.03921305
v -0.0532325 -0.1963883 -0.03921305
v 0.05516192 -0.06232746 -0.03921305
v -0.1341183 0.07519258 -0.03921305
v 0.1626989 0.07067294 -0.03921305
v 0.108899 0.1200563 0.03922582
v -0.1306875 0.0787681 0.03922582
v -0.1340667 0.07631298 0.03922582
v 0.1542493 0.07573402 0.03922582
v -0.1338942 0.07573402 0.03922582
v -0.134067 0.07818571 0.03922582
v -0.1343578 0.07729056 0.03922582
v -0.1345972 0.07809434 0.03922582
v -0.1232357 0.03994707 0.03922582
v -0.04772538 -0.1924496 0.03922582
v 0.05662491 -0.06339037 0.03922582
v -0.1336266 0.07483529 0.03922582
v 0.1625523 0.0676193 0.03922582
v -0.05232568 -0.1981391 0.03922582
v -0.1347193 0.07831296 0.02762513
v -0.1345791 0.07673947 -0.03921305
v -0.1313472 0.08012639 -0.03202556
v -0.1343578 0.07729056 0.03922582
v -0.134067 0.07818571 0.03922582
v 0.1542493 0.07573402 0.03922582
v -0.1338942 0.07573402 0.03922582
v -0.1278586 0.05417497 -0.03921305
v -0.0532325 -0.1963883 -0.03921305
v -0.1341183 0.07519258 -0.03921305
v -0.1342795 0.07573402 -0.03921305
v -0.1232357 0.03994707 0.03922582
v -0.1343578 0.07729056 0.03922582
v -0.1345972 0.07809434 0.03922582
v -0.1340667 0.07631298 0.03922582
v -0.1338942 0.07573402 0.03922582
v -0.1336266 0.07483529 0.03922582
v -0.1232357 0.03994707 0.03922582
v -0.1345589 0.07667172 -0.03921305
v -0.1343835 0.07608281 -0.03921305
v -0.04772538 -0.1924496 0.03922582
v -0.05232568 -0.1981391 0.03922582
v -0.1232357 0.03994707 0.03922582
v -0.1306086 0.08040214 -0.03921305
v -0.1315151 0.07977586 -0.03921305
v -0.1277636 0.08089243 -0.03921305
v -0.1313472 0.08012639 -0.03202556
v -0.1306086 0.08040214 -0.03921305
v -0.1345972 0.07809434 0.03922582
v -0.1347193 0.07831296 0.02762513
v -0.134067 0.07818571 0.03922582
v -0.1306875 0.0787681 0.03922582
v 0.108899 0.1200563 0.03922582
v 0.1102702 0.1219131 -0.03921305
v -0.1345168 0.07680114 -0.03921305
v -0.1345791 0.07673947 -0.03921305
v -0.1345168 0.07680114 -0.03921305
v -0.1347193 0.07831296 0.02762513
v -0.1345791 0.07673947 -0.03921305
v -0.1313472 0.08012639 -0.03202556
v -0.1345168 0.07680114 -0.03921305
v -0.04772538 -0.1924496 0.03922582
v -0.0532325 -0.1963883 -0.03921305
v -0.05232568 -0.1981391 0.03922582
v 0.05662491 -0.06339037 0.03922582
v 0.1625523 0.0676193 0.03922582
v -0.04839113 -0.1904006 -0.03921305
v 0.05516192 -0.06232746 -0.03921305
v 0.1626989 0.07067294 -0.03921305
v 0.1542493 0.07573402 0.03922582
v 0.1626989 0.07067294 -0.03921305
v 0.1625523 0.0676193 0.03922582
v 0.108899 0.1200563 0.03922582
v 0.1575204 0.07573402 -0.03921305
v 0.1102702 0.1219131 -0.03921305
vt 0.5699831 0
vt 0.5701799 0
vt 0.5001402 0
vt 0.5029491 0
vt 0.5001994 0
vt 0.500426 0
vt 0.5004848 0
vt 0.5020635 0
vt 0.5024264 0
vt 0.5010882 0
vt 0.5134333 0
vt 0.5126812 0
vt 0.5338271 0
vt 0.5001326 0
vt 0.5709909 0
vt 0.5692059 0.9999999
vt 0.5017346 0.9999999
vt 0.500331 0.9999999
vt 0.5693948 0.9999999
vt 0.5002327 0.9999999
vt 0.5011138 0.9999999
vt 0.5007071 0.9999999
vt 0.4987673 0.9999999
vt 0.5018064 0.9999999
vt 0.5135368 0.9999999
vt 0.5340875 0.9999999
vt 0.5002202 0.9999999
vt 0.570695 0.9999999
vt 1.178099 0.07003667
vt 0.9205324 0.05967863
vt 0.9219146 0
vt 0.00649052 0.004092395
vt 0.4991358 0.9999999
vt 0.4986387 0.9999999
vt 0.5693948 0.9999999
vt 0.5002327 0.9999999
vt 0.9429364 0
vt 1.176369 0
vt 0.9233557 0
vt 0.9228513 0
vt 0.9562898 0.07003667
vt 0.9214994 0.07003667
vt 0.9207506 0.07003667
vt 0.9224101 0.07003667
vt 0.9229496 0.07003667
vt 0.9237868 0.07003667
vt 0.9562898 0.07003667
vt 0.9219777 0
vt 0.9225264 0
vt 0.5135368 0.9999999
vt 0.5128222 0.9999999
vt 0.5018064 0.9999999
vt 8.444877E-05 0.004893808
vt 6.621212E-05 0.003910241
vt 0.001103075 0.006534195
vt 0.007533346 0.003287356
vt 0.001112115 0.003956533
vt 0.07117563 0.0003427696
vt 0.06081588 0.0002321385
vt 0.07117394 0.0008231878
vt 0.07116321 0.003885074
vt 0.07040178 0.2209571
vt 0.000346583 0.2221995
vt 0.4994075 0
vt 0.4994483 0
vt 1.410246E-06 0.0002544783
vt 0.05969436 0
vt 0 0.000176269
vt 0.006492864 0.00423818
vt 1.410246E-06 0.0002544783
vt 0.006532841 0.07005446
vt 0.000706501 0
vt 0 0.07005446
vt 0.1547208 0.07005444
vt 0.3051483 0.07005444
vt 0.00758173 0
vt 0.1546375 0
vt 0.3073508 0
vt 0.07165691 0.05659616
vt 0.001863141 0.06714105
vt 0.07195196 0.06695804
vt 0.07004531 0
vt 0.001679115 0.06067843
vt 0 0.001711311
vn 0 0 -1
vn 0 0 -1
vn 0 0 -1
vn 0 0 -1
vn 0 0 -1
vn 0 0 -1
vn 0 0 -1
vn 0 0 -1
vn 0 0 -1
vn 0 0 -1
vn 0 0 -1
vn 0 0 -1
vn 0 0 -1
vn 0 0 -1
vn 0 0 -1
vn 0 0 1
vn 0 0 1
vn 0 0 1
vn 0 0 1
vn 0 0 1
vn 0 0 1
vn 0 0 1
vn 0 0 1
vn 0 0 1
vn 0 0 1
vn 0 0 1
vn 0 0 1
vn 0 0 1
vn -0.9583853 -0.285439 0.004708727
vn -0.9583853 -0.2854391 0.004708712
vn -0.9583853 -0.285439 0.004708712
vn -0.5682275 0.8224338 -0.02683608
vn 0 0 1
vn 0 0 1
vn 0 0 1
vn 0 0 1
vn -0.9583853 -0.285439 0.004708728
vn -0.9583853 -0.285439 0.004708727
vn -0.9583853 -0.285439 0.004708683
vn -0.9584029 -0.285376 0.004946796
vn -0.9583853 -0.285439 0.004708251
vn 0 0 1
vn 0 0 1
vn 0 0 1
vn 0 0 1
vn 0 0 1
vn 0 0 1
vn -0.9583853 -0.285439 0.004708712
vn -0.9583853 -0.285439 0.004708712
vn 0 0 1
vn 0 0 1
vn 0 0 1
vn 0 0 -1
vn 0 0 -1
vn -0.1697925 0.9852696 0.02035448
vn -0.1697925 0.9852696 0.02035448
vn -0.1697924 0.9852696 0.02035448
vn -0.1697926 0.9852696 0.02035446
vn -0.1697926 0.9852696 0.02035447
vn -0.1697921 0.9852697 0.02035451
vn -0.1697926 0.9852696 0.02035447
vn -0.1697926 0.9852696 0.02035447
vn -0.1697926 0.9852696 0.02035446
vn 0 0 -1
vn 0 0 -1
vn -0.7037857 0.7101792 -0.01819558
vn -0.7037857 0.7101792 -0.01819558
vn -0.7037857 0.7101792 -0.01819558
vn -0.7037861 0.7101788 -0.01819557
vn 0 0 -1
vn 0.7774082 -0.628575 -0.02301733
vn 0.7774082 -0.628575 -0.02301733
vn 0.7774082 -0.628575 -0.02301733
vn 0.7774107 -0.628572 -0.02301764
vn 0.7774104 -0.6285723 -0.02301701
vn 0.7774114 -0.6285709 -0.02302447
vn 0.7774106 -0.6285723 -0.02301754
vn 0.7774104 -0.6285724 -0.02301723
vn 0.6986567 0.7148637 0.02913583
vn 0.6986567 0.7148637 0.02913584
vn 0.6986567 0.7148637 0.02913584
vn 0.6986573 0.7148629 0.02913595
vn 0.6986583 0.7148619 0.02913717
vn 0.6986569 0.7148634 0.02913554
g Cylinder001_v_006_0
f 2/2/2 3/3/3 1/1/1
f 1/1/1 3/3/3 4/4/4
f 4/4/4 3/3/3 5/5/5
f 7/7/7 8/8/8 6/6/6
f 9/9/9 4/4/4 8/8/8
f 8/8/8 4/4/4 6/6/6
f 4/4/4 5/5/5 6/6/6
f 11/11/11 12/12/12 10/10/10
f 11/11/11 10/10/10 13/13/13
f 14/14/14 13/13/13 10/10/10
f 15/15/15 13/13/13 2/2/2
f 2/2/2 13/13/13 3/3/3
f 13/13/13 14/14/14 3/3/3
f 17/17/17 18/18/18 16/16/16
f 16/16/16 18/18/18 19/19/19
f 19/19/19 18/18/18 20/20/20
f 17/17/17 21/21/21 18/18/18
f 22/22/22 18/18/18 21/21/21
f 34/34/34 23/23/23 33/33/33
f 25/25/25 26/26/26 24/24/24
f 27/27/27 24/24/24 26/26/26
f 28/28/28 35/35/35 26/26/26
f 35/35/35 36/36/36 26/26/26
f 26/26/26 36/36/36 27/27/27
f 38/38/38 29/29/29 37/37/37
f 37/37/37 29/29/29 39/39/39
f 39/39/39 29/29/29 40/40/40
f 29/29/29 41/41/41 40/40/40
f 43/43/43 30/30/30 42/42/42
f 42/42/42 30/30/30 44/44/44
f 44/44/44 30/30/30 45/45/45
f 45/45/45 30/30/30 46/46/46
f 46/46/46 30/30/30 47/47/47
f 41/41/41 30/30/30 40/40/40
f 31/31/31 48/48/48 30/30/30
f 48/48/48 49/49/49 30/30/30
f 30/30/30 49/49/49 40/40/40
f 52/52/52 51/51/51 50/50/50
f 54/54/54 32/32/32 53/53/53
f 57/57/57 56/56/56 55/55/55
f 59/59/59 58/58/58 56/56/56
f 56/56/56 58/58/58 55/55/55
f 58/58/58 60/60/60 55/55/55
f 60/60/60 61/61/61 55/55/55
f 61/61/61 62/62/62 55/55/55
f 62/62/62 63/63/63 55/55/55
f 6/6/6 65/65/65 64/64/64
f 68/68/68 67/67/67 66/66/66
f 67/67/67 69/69/69 66/66/66
f 69/69/69 54/54/54 70/70/70
f 73/73/73 72/72/72 71/71/71
f 71/71/71 72/72/72 74/74/74
f 74/74/74 72/72/72 75/75/75
f 72/72/72 76/76/76 75/75/75
f 76/76/76 77/77/77 75/75/75
f 77/77/77 78/78/78 75/75/75
f 81/81/81 80/80/80 79/79/79
f 79/79/79 80/80/80 82/82/82
f 80/80/80 83/83/83 82/82/82
f 82/82/82 83/83/83 84/84/84
