g Cylinder001_v_016
v -0.2588153 0.3125678 -0.03921242
v -0.05989654 -0.2996412 0.03922643
v -0.2588153 0.3125678 0.03922643
v -0.05989654 -0.2996412 -0.03921242
v 0.2097269 -0.495534 0.001398043
v 0.2104116 -0.4960314 0.03922643
v 0.2089918 -0.4949999 -0.03921242
v 0.04232968 0.3125678 -0.03921242
v 0.1692545 0.09608135 -0.03921242
v 0.1839478 -0.1224778 -0.03921242
v 0.1852353 -0.1215424 0.03922643
v -0.2317689 0.3958082 -0.03921242
v 0.01625531 0.357041 -0.03921242
v 0.17089 0.09183916 0.03922643
v 0.04147809 0.3125678 0.03922643
v -0.2326584 0.3930706 0.02891206
v -0.232793 0.3926562 0.03922643
v 0.01745562 0.3535413 0.03922643
v -0.2588153 0.3125678 -0.03921242
v -0.05989654 -0.2996412 -0.03921242
v 0.2089918 -0.4949999 -0.03921242
v 0.2104116 -0.4960314 0.03922643
v -0.05989654 -0.2996412 0.03922643
v -0.2588153 0.3125678 0.03922643
v 0.1852353 -0.1215424 0.03922643
v 0.2097269 -0.495534 0.001398043
v 0.2104116 -0.4960314 0.03922643
v 0.1839478 -0.1224778 -0.03921242
v 0.2089918 -0.4949999 -0.03921242
v 0.1839478 -0.1224778 -0.03921242
v 0.17089 0.09183916 0.03922643
v 0.1692545 0.09608135 -0.03921242
v -0.2317689 0.3958082 -0.03921242
v -0.232793 0.3926562 0.03922643
v 0.04147809 0.3125678 0.03922643
v 0.1692545 0.09608135 -0.03921242
v 0.17089 0.09183916 0.03922643
v 0.01745562 0.3535413 0.03922643
v 0.04232968 0.3125678 -0.03921242
v 0.01625531 0.357041 -0.03921242
v 0.01745562 0.3535413 0.03922643
v -0.2317689 0.3958082 -0.03921242
v 0.01625531 0.357041 -0.03921242
v -0.2326584 0.3930706 0.02891206
v -0.232793 0.3926562 0.03922643
v 0.01745562 0.3535413 0.03922643
vt 0.25 0
vt 0.3500001 0.9999999
vt 0.25 0.9999999
vt 0.3500001 0
vt 0.4017734 0.517734
vt 0.4019049 0.9999999
vt 0.4016323 0
vt 0.3222828 0
vt 0.371226 0
vt 0.3934076 0
vt 0.3936368 0.9999999
vt 0.2364033 0
vt 0.3052914 0
vt 0.3719807 0.9999999
vt 0.3220783 0.9999999
vt 0.2368505 0.8685042
vt 0.2369182 0.9999999
vt 0.3064241 0.9999999
vt 0.25 0
vt 0.3500001 0
vt 0.4016323 0
vt 0.4019049 0.9999999
vt 0.3500001 0.9999999
vt 0.25 0.9999999
vt 0.3351257 0.07004621
vt 0.0004841614 0.03626531
vt 0 0.07004621
vt 0.3343695 0
vt 0.001003952 0
vt 0.3343695 0
vt 0.5260783 0.07004622
vt 0.5299554 0
vt 0.2364033 0
vt 0.2369182 0.9999999
vt 0.2284577 0.07003897
vt 0.004006176 0
vt 0 0.07003896
vt 0.270866 0.07003897
vt 0.2280732 0
vt 0.2741037 0
vt 0.07156566 0.2261482
vt 0 0.0009254456
vt 0.001460295 0.2250635
vt 0.06087545 0.0001216125
vt 0.07009228 0
vt 0.07156566 0.2261482
vn -0.9941859 -0.107677 0
vn -0.8676042 -0.4972554 0
vn -0.9941859 0.1076767 0
vn -0.7410225 -0.6714801 0
vn -0.5817649 -0.813357 0
vn -0.6622566 -0.7492772 0
vn -0.4880252 -0.8728296 0
vn 0 0 -1
vn 0 0 -1
vn 0 0 -1
vn 0 0 1
vn 0 0 -1
vn 0 0 -1
vn 0 0 1
vn 0 0 1
vn -0.987044 0.1604494 0
vn -0.9826432 0.1855059 0
vn 0 0 1
vn 0 0 -1
vn 0 0 -1
vn 0 0 -1
vn 0 0 1
vn 0 0 1
vn 0 0 1
vn 0.9976006 0.06706706 -0.01717456
vn 0.9976006 0.06706706 -0.01717456
vn 0.9976006 0.06706706 -0.01717456
vn 0 0 -1
vn 0 0 -1
vn 0.9976006 0.06706703 -0.01717429
vn 0.9976007 0.06706675 -0.01717429
vn 0.9976006 0.06706689 -0.01717468
vn -0.9996614 -0.02601642 0
vn 0 0 1
vn 0.8626272 0.5057535 0.009365226
vn 0.8626272 0.5057536 0.009365226
vn 0.8626272 0.5057536 0.009365226
vn 0.8626272 0.5057534 0.009365452
vn 0.8626272 0.5057536 0.009365047
vn 0.8626272 0.5057534 0.00936512
vn 0.1542947 0.9871452 0.04168243
vn 0.1542947 0.9871452 0.04168243
vn 0.1542947 0.9871452 0.04168243
vn 0.1542947 0.9871452 0.04168266
vn 0.1542947 0.9871452 0.04168159
vn 0 0 1
g Cylinder001_v_016_0
f 2/2/2 3/3/3 1/1/1
f 4/4/4 2/2/2 1/1/1
f 4/4/4 5/5/5 2/2/2
f 6/6/6 2/2/2 5/5/5
f 7/7/7 5/5/5 4/4/4
f 8/8/8 9/9/9 19/19/19
f 19/19/19 9/9/9 20/20/20
f 20/20/20 9/9/9 10/10/10
f 20/20/20 10/10/10 21/21/21
f 23/23/23 22/22/22 11/11/11
f 13/13/13 8/8/8 12/12/12
f 19/19/19 12/12/12 8/8/8
f 11/11/11 14/14/14 23/23/23
f 23/23/23 14/14/14 24/24/24
f 24/24/24 14/14/14 15/15/15
f 27/27/27 26/26/26 25/25/25
f 29/29/29 28/28/28 26/26/26
f 26/26/26 30/30/30 25/25/25
f 25/25/25 30/30/30 31/31/31
f 30/30/30 32/32/32 31/31/31
f 3/3/3 17/17/17 16/16/16
f 3/3/3 16/16/16 1/1/1
f 33/33/33 1/1/1 16/16/16
f 24/24/24 15/15/15 34/34/34
f 18/18/18 34/34/34 15/15/15
f 37/37/37 36/36/36 35/35/35
f 35/35/35 36/36/36 38/38/38
f 36/36/36 39/39/39 38/38/38
f 39/39/39 40/40/40 38/38/38
f 43/43/43 42/42/42 41/41/41
f 42/42/42 44/44/44 41/41/41
f 46/46/46 44/44/44 45/45/45
