g Cylinder001_v_012
v -0.1925945 -0.2989433 -0.03915373
v -0.3280751 -0.3519898 -0.03915373
v -0.3519272 -0.1270628 -0.03915373
v -0.3050248 0.02619368 -0.03915373
v -0.3001835 0.03218139 -0.03915373
v -0.1966304 0.1602545 -0.03915373
v 0.2154833 -0.1391634 -0.03915373
v -0.1926561 -0.2987538 0.03928512
v 0.2152922 -0.1390245 0.03928513
v -0.1951674 0.1591916 0.03928513
v -0.2995178 0.03013246 0.03928512
v 0.4224695 -0.05790562 0.03928512
v 0.2475714 0.2790016 0.03928513
v -0.08924004 0.2902013 0.03928513
v -0.3514534 -0.1302288 0.03928512
v -0.304118 0.02444289 0.03928512
v -0.08909345 0.2932549 -0.03915373
v -0.3279644 -0.3517327 0.03928512
v 0.2490423 0.2820112 -0.03915373
v 0.4250826 -0.05709618 -0.03915373
v 0.2152922 -0.1390245 0.03928513
v -0.08924004 0.2902013 0.03928513
v -0.3519272 -0.1270628 -0.03915373
v -0.3050248 0.02619368 -0.03915373
v -0.3001835 0.03218139 -0.03915373
v -0.304118 0.02444289 0.03928512
v -0.3050248 0.02619368 -0.03915373
v -0.1966304 0.1602545 -0.03915373
v -0.2995178 0.03013246 0.03928512
v -0.1951674 0.1591916 0.03928513
v -0.08924004 0.2902013 0.03928513
v -0.3514534 -0.1302288 0.03928512
v -0.304118 0.02444289 0.03928512
v -0.3514534 -0.1302288 0.03928512
v -0.3280751 -0.3519898 -0.03915373
v -0.3519272 -0.1270628 -0.03915373
v -0.3279644 -0.3517327 0.03928512
v -0.08909345 0.2932549 -0.03915373
v -0.08909345 0.2932549 -0.03915373
v 0.2475714 0.2790016 0.03928513
v -0.08924004 0.2902013 0.03928513
v 0.2490423 0.2820112 -0.03915373
v -0.1926561 -0.2987538 0.03928512
v -0.3280751 -0.3519898 -0.03915373
v -0.3279644 -0.3517327 0.03928512
v 0.2152922 -0.1390245 0.03928513
v 0.4224695 -0.05790562 0.03928512
v -0.1925945 -0.2989433 -0.03915373
v 0.2154833 -0.1391634 -0.03915373
v 0.4250826 -0.05709618 -0.03915373
v 0.4250826 -0.05709618 -0.03915373
v 0.2475714 0.2790016 0.03928513
v 0.2490423 0.2820112 -0.03915373
v 0.4224695 -0.05790562 0.03928512
vt 0.5301472 0
vt 0.5091004 0
vt 0.5053951 0
vt 0.5126812 0
vt 0.5134334 0
vt 0.5338271 0
vt 0.6071889 0
vt 0.5301375 0.9999999
vt 0.6071548 0.9999999
vt 0.5340875 0.9999999
vt 0.5135368 0.9999999
vt 0.6638067 0.9999999
vt 0.6505828 0.9999999
vt 0.5706951 0.9999999
vt 1.24358 0.07004671
vt 1.099155 0.07004671
vt 0.7330061 0
vt 0.5091176 0.9999999
vt 0.6511927 0
vt 0.664503 0
vt 0.6071548 0.9999999
vt 0.5706951 0.9999999
vt 1.241 0
vt 1.097897 0
vt 1.032775 0
vt 1.040357 0.07005444
vt 1.03965 0
vt 0.8857195 0
vt 1.033824 0.07005444
vt 0.8856362 0.07005444
vt 0.7352086 0.07005446
vt 0.5054686 0.9999999
vt 0.5128221 0.9999999
vt 0.002855682 0.07003599
vt 0.2019572 0
vt 0 0
vt 0.2017393 0.07003599
vt 0.5709908 0
vt 0 0.0001309967
vt 0.07047858 0.3008956
vt 0.07008896 0
vt 0.0003911568 0.3022097
vt 0.0007131576 0.1298497
vt 0.07087827 0
vt 0.0008420229 0.0001062012
vt 0.000324626 0.5210207
vt 0.0001273209 0.7196775
vt 0.07074925 0.1299088
vt 0.0703606 0.5212039
vt 0.07016098 0.7221832
vt 0 0
vt 0.3393675 0.07007714
vt 0.3411474 0
vt 0.0004335785 0.07007713
vn 0 0 -1
vn 0 0 -1
vn 0 0 -1
vn 0 0 -1
vn 0 0 -1
vn 0 0 -1
vn 0 0 -1
vn 0 0 1
vn 0 0 1
vn 0 0 1
vn 0 0 1
vn 0 0 1
vn 0 0 1
vn 0 0 1
vn -0.9560747 0.2925954 0.01758393
vn -0.9560747 0.2925954 0.01758393
vn -0.7774106 0.6285722 0.02301674
vn 0 0 1
vn 0 0 -1
vn 0 0 -1
vn 0 0 1
vn 0 0 1
vn -0.9560747 0.2925954 0.01758393
vn -0.9560747 0.2925954 0.01758388
vn -0.77741 0.6285729 0.0230176
vn -0.77741 0.6285729 0.0230176
vn -0.77741 0.628573 0.0230176
vn -0.7774103 0.6285725 0.02301753
vn -0.777413 0.6285698 0.0230019
vn -0.7774103 0.6285726 0.02301836
vn -0.7774106 0.6285723 0.02301767
vn 0 0 1
vn 0 0 1
vn -0.9944229 -0.1054523 0.001748993
vn -0.9944229 -0.1054523 0.001748993
vn -0.9944229 -0.1054523 0.001748993
vn -0.9944229 -0.1054523 0.001749125
vn 0 0 -1
vn 0.03320841 0.9986895 0.03894158
vn 0.03320841 0.9986895 0.03894158
vn 0.03320841 0.9986895 0.03894157
vn 0.0332084 0.9986895 0.03894163
vn 0.3645904 -0.9311645 0.002537147
vn 0.3645903 -0.9311645 0.002537147
vn 0.3645904 -0.9311645 0.002537147
vn 0.3645909 -0.9311643 0.002536271
vn 0.3645912 -0.9311642 0.002534071
vn 0.364591 -0.9311643 0.002536448
vn 0.3645909 -0.9311644 0.002537638
vn 0.364591 -0.9311643 0.002537094
vn 0.8870109 0.4604726 0.03430133
vn 0.8870109 0.4604726 0.03430132
vn 0.8870109 0.4604726 0.03430133
vn 0.8870109 0.4604724 0.03430229
g Cylinder001_v_012_0
f 2/2/2 3/3/3 1/1/1
f 3/3/3 4/4/4 1/1/1
f 1/1/1 4/4/4 5/5/5
f 7/7/7 1/1/1 6/6/6
f 5/5/5 6/6/6 1/1/1
f 9/9/9 10/10/10 8/8/8
f 11/11/11 8/8/8 10/10/10
f 12/12/12 13/13/13 21/21/21
f 13/13/13 14/14/14 21/21/21
f 9/9/9 22/22/22 10/10/10
f 15/15/15 16/16/16 23/23/23
f 24/24/24 23/23/23 16/16/16
f 27/27/27 26/26/26 25/25/25
f 25/25/25 26/26/26 28/28/28
f 28/28/28 26/26/26 17/17/17
f 26/26/26 29/29/29 17/17/17
f 29/29/29 30/30/30 17/17/17
f 30/30/30 31/31/31 17/17/17
f 33/33/33 32/32/32 11/11/11
f 32/32/32 18/18/18 11/11/11
f 11/11/11 18/18/18 8/8/8
f 36/36/36 35/35/35 34/34/34
f 37/37/37 34/34/34 35/35/35
f 38/38/38 19/19/19 6/6/6
f 6/6/6 19/19/19 7/7/7
f 7/7/7 19/19/19 20/20/20
f 41/41/41 40/40/40 39/39/39
f 42/42/42 39/39/39 40/40/40
f 45/45/45 44/44/44 43/43/43
f 43/43/43 44/44/44 46/46/46
f 46/46/46 44/44/44 47/47/47
f 44/44/44 48/48/48 47/47/47
f 48/48/48 49/49/49 47/47/47
f 49/49/49 50/50/50 47/47/47
f 53/53/53 52/52/52 51/51/51
f 54/54/54 51/51/51 52/52/52
