g Cylinder001_v_005
v -0.08519328 0.003593007 -0.03884862
v -0.06622397 0.139854 -0.03884862
v 0.159534 0.004930698 -0.03884862
v 0.1574593 0.003593028 -0.03884862
v -0.05089383 -0.1260641 0.03959024
v 0.1502065 0.003593027 0.03959024
v -0.08059575 0.003593007 0.03959024
v -0.09446992 -0.09606783 0.03959024
v -0.0469688 -0.1282096 -0.03884862
v 0.1559553 0.007299498 0.03959024
v -0.06195001 0.1375297 0.03959024
v -0.09859472 -0.09267218 -0.03884862
v 0.1502065 0.003593027 0.03959024
v -0.05089383 -0.1260641 0.03959024
v 0.1574593 0.003593028 -0.03884862
v 0.159534 0.004930698 -0.03884862
v 0.1559553 0.007299498 0.03959024
v 0.1559553 0.007299498 0.03959024
v -0.08059575 0.003593007 0.03959024
v 0.1559553 0.007299498 0.03959024
v -0.06622397 0.139854 -0.03884862
v 0.159534 0.004930698 -0.03884862
v -0.06195001 0.1375297 0.03959024
v -0.0469688 -0.1282096 -0.03884862
v -0.0469688 -0.1282096 -0.03884862
v -0.09446992 -0.09606783 0.03959024
v -0.05089383 -0.1260641 0.03959024
v -0.09859472 -0.09267218 -0.03884862
v -0.08519328 0.003593007 -0.03884862
v -0.09446992 -0.09606783 0.03959024
v -0.09859472 -0.09267218 -0.03884862
v -0.08059575 0.003593007 0.03959024
v -0.06195001 0.1375297 0.03959024
v -0.06622397 0.139854 -0.03884862
vt 0.440806 0
vt 0.4124749 0
vt 0.4992242 0
vt 0.499049 0
vt 0.4601055 0.9999999
vt 0.4973081 0.9999999
vt 0.4419095 0.9999999
vt 0.4470858 0.9999999
vt 0.1067338 0.6951711
vt 0.0296218 0.9106381
vt 0.4140618 0.9999999
vt 0.4458059 0
vt 0.02981875 0.9045339
vt 0.03670799 0.6910034
vt 0.09973051 0.912235
vt 0.09965944 0.9144379
vt 0.4977935 0.9999999
vt 0.4977935 0.9999999
vt 0.4419095 0.9999999
vt 0.07004178 0.9014827
vt 0.0003532676 0.6703767
vt 0 0.9052051
vt 0.07038276 0.6748223
vt 0.4612307 0
vt 0.07002054 0.776135
vt 0.0001899398 0.7246459
vt 0 0.7718805
vt 0.07024558 0.7201748
vt 0.122837 2.384186E-09
vt 0.2121135 0.07015381
vt 0.2096184 0
vt 0.1222709 0.07015382
vt 0.001529322 0.07015381
vt 0 0
vn 0 0 -1
vn 0 0 -1
vn 0 0 -1
vn 0 0 -1
vn 0 0 1
vn 0 0 1
vn 0 0 1
vn 0 0 1
vn 0.541197 -0.8394056 0.05004137
vn 0.5411949 -0.8394065 0.05004844
vn 0 0 1
vn 0 0 -1
vn 0.541197 -0.8394056 0.05004137
vn 0.541197 -0.8394056 0.05004138
vn 0.541197 -0.8394055 0.05004104
vn 0.5411969 -0.8394056 0.05004095
vn 0 0 1
vn 0 0 1
vn 0 0 1
vn 0.5130074 0.8583806 -0.002517146
vn 0.5130075 0.8583806 -0.002517146
vn 0.5130075 0.8583806 -0.002517146
vn 0.5130073 0.8583806 -0.002516947
vn 0 0 -1
vn -0.5670027 -0.8236952 -0.005841834
vn -0.5670027 -0.8236952 -0.005841835
vn -0.5670027 -0.8236952 -0.005841834
vn -0.5670026 -0.8236952 -0.005841739
vn -0.9887837 0.1376522 0.05795538
vn -0.9887837 0.1376523 0.05795538
vn -0.9887837 0.1376522 0.05795538
vn -0.9887837 0.1376524 0.05795559
vn -0.9887838 0.1376515 0.05795559
vn -0.9887838 0.1376517 0.05795539
g Cylinder001_v_005_0
f 2/2/2 3/3/3 1/1/1
f 4/4/4 1/1/1 3/3/3
f 6/6/6 7/7/7 5/5/5
f 8/8/8 5/5/5 7/7/7
f 14/14/14 9/9/9 13/13/13
f 13/13/13 9/9/9 10/10/10
f 9/9/9 15/15/15 10/10/10
f 15/15/15 16/16/16 10/10/10
f 6/6/6 17/17/17 7/7/7
f 11/11/11 19/19/19 18/18/18
f 22/22/22 21/21/21 20/20/20
f 23/23/23 20/20/20 21/21/21
f 4/4/4 24/24/24 1/1/1
f 12/12/12 1/1/1 24/24/24
f 27/27/27 26/26/26 25/25/25
f 28/28/28 25/25/25 26/26/26
f 31/31/31 30/30/30 29/29/29
f 30/30/30 32/32/32 29/29/29
f 32/32/32 33/33/33 29/29/29
f 33/33/33 34/34/34 29/29/29
