g Cylinder001_v_010
v 0.1288275 -0.443281 -0.02013334
v 0.1287831 -0.4432809 0.03926598
v -0.02742192 -0.4432809 0.03926599
v -0.02742192 -0.4432809 -0.03917287
v 0.1288418 -0.4432809 -0.03917287
v 0.03854413 0.447633 0.03926599
v 0.08212049 0.4176365 0.03926599
v 0.08604538 0.4154912 -0.03917287
v 0.03441936 0.4510287 -0.03917287
v -0.3190467 0.3308074 -0.03917287
v -0.3043535 0.1122482 -0.03917287
v 0.09618018 0.403253 -0.03917287
v -0.2793095 -0.2602739 -0.03917287
v 0.2049553 0.2719025 -0.03917287
v -0.3030659 0.1131836 0.03926598
v -0.2778896 -0.2613055 0.03926598
v 0.20435 0.2700394 0.03926599
v 0.09483895 0.4022785 0.03926599
v 0.353127 -0.1027549 0.03926599
v 0.3296379 0.1187491 0.03926599
v 0.3291642 0.1219151 -0.03917287
v 0.3530163 -0.1030119 -0.03917287
v -0.2785744 -0.260808 0.001437597
v -0.3174112 0.3265651 0.03926599
v 0.08604538 0.4154912 -0.03917287
v 0.03441936 0.4510287 -0.03917287
v -0.02742192 -0.4432809 -0.03917287
v -0.02742192 -0.4432809 0.03926599
v -0.3030659 0.1131836 0.03926598
v -0.02742192 -0.4432809 0.03926599
v 0.20435 0.2700394 0.03926599
v -0.3030659 0.1131836 0.03926598
v 0.1287831 -0.4432809 0.03926598
v -0.02742192 -0.4432809 0.03926599
v 0.20435 0.2700394 0.03926599
v 0.20435 0.2700394 0.03926599
v 0.3296379 0.1187491 0.03926599
v 0.09483895 0.4022785 0.03926599
v 0.08212049 0.4176365 0.03926599
v 0.2049553 0.2719025 -0.03917287
v 0.09618018 0.403253 -0.03917287
v 0.08604538 0.4154912 -0.03917287
v 0.3291642 0.1219151 -0.03917287
v 0.1288418 -0.4432809 -0.03917287
v 0.3530163 -0.1030119 -0.03917287
v 0.3296379 0.1187491 0.03926599
v 0.3291642 0.1219151 -0.03917287
v 0.353127 -0.1027549 0.03926599
v 0.1288275 -0.443281 -0.02013334
v 0.3530163 -0.1030119 -0.03917287
v 0.1288418 -0.4432809 -0.03917287
v 0.353127 -0.1027549 0.03926599
v 0.1287831 -0.4432809 0.03926598
v -0.2778896 -0.2613055 0.03926598
v -0.2793095 -0.2602739 -0.03917287
v 0.09483895 0.4022785 0.03926599
v 0.03854413 0.447633 0.03926599
v 0.08212049 0.4176365 0.03926599
v 0.09483895 0.4022785 0.03926599
v 0.03854413 0.447633 0.03926599
v -0.3174112 0.3265651 0.03926599
v -0.3174112 0.3265651 0.03926599
v 0.03441936 0.4510287 -0.03917287
v 0.03854413 0.447633 0.03926599
v -0.3190467 0.3308074 -0.03917287
v -0.3030659 0.1131836 0.03926598
v -0.3190467 0.3308074 -0.03917287
v -0.3174112 0.3265651 0.03926599
v -0.3043535 0.1122482 -0.03917287
v -0.2785744 -0.260808 0.001437597
v -0.2793095 -0.2602739 -0.03917287
v -0.2778896 -0.2613055 0.03926598
v -0.3030659 0.1131836 0.03926598
vt 0.4742731 0.2427308
vt 0.4742662 0.9999999
vt 0.45 0.9999999
vt 0.45 0
vt 0.4742753 0
vt 0.07295097 0.7246459
vt 0.07314092 0.7718809
vt 0.003120369 0.7761352
vt 0.00289534 0.7201748
vt 0.371226 0
vt 0.3934076 0
vt 0.4647079 0
vt 0.4016323 0
vt 0.4860994 0
vt 0.3936368 0.9999999
vt 0.4019049 0.9999999
vt 0.4860054 0.9999999
vt 0.4644691 0.9999999
vt 0.5091177 0.9999999
vt 0.5054687 0.9999999
vt 0.002446995 0
vt 0.5091005 0
vt 0.4017734 0.517734
vt 0.3719807 0.9999999
vt 0.4612307 0
vt 0.4458058 0
vt 0.45 0
vt 0.45 0.9999999
vt 0.3936368 0.9999999
vt 0.45 0.9999999
vt 0.4860054 0.9999999
vt 0.3936368 0.9999999
vt 0.4742662 0.9999999
vt 0.45 0.9999999
vt 0.4860054 0.9999999
vt 0.1753894 0.07005148
vt 0 0.07005148
vt 0.3286929 0.07005148
vt 0.3464973 0.07005148
vt 0.1763258 0
vt 0.3285992 0
vt 0.3427868 0
vt 0.5053951 0
vt 0.4742753 0
vt 0.3055332 1.227479E-09
vt 0.5046347 0.07003599
vt 0.5074904 4.628641E-10
vt 0.305751 0.07003599
vt 2.174377E-05 0.01699988
vt 0.3638534 0
vt 2.876282E-05 0
vt 0.3640994 0.0700359
vt 0 0.0700359
vt 0.4019049 0.9999999
vt 0.4016323 0
vt 0.4644691 0.9999999
vt 0.4470857 0.9999999
vt 0.4601055 0.9999999
vt 0.4644691 0.9999999
vt 0.4470857 0.9999999
vt 0.3719807 0.9999999
vt 0.07669105 0.3052855
vt 0 0.6370342
vt 0.07009034 0.6409236
vt 0.006554544 0.3037433
vt 0.1948297 0.07004621
vt 0 0
vt 0.003877258 0.07004622
vt 0.1955859 0
vt 0.5294712 0.03626531
vt 0.5289514 0
vt 0.5299554 0.07004621
vt 0.1948297 0.07004621
vn -0.1070481 -0.9942538 0
vn -0.2701811 -0.9628095 0
vn -0.409627 -0.912253 0
vn -0.2048134 -0.978801 0
vn -0.05771934 -0.9983329 0
vn 0.5670031 0.8236949 0.005842511
vn 0.5670032 0.8236948 0.00584251
vn 0.5670032 0.8236948 0.005842511
vn 0.5670025 0.8236954 0.005842003
vn 0 0 -1
vn 0 0 -1
vn 0 0 -1
vn 0 0 -1
vn 0 0 -1
vn 0 0 1
vn 0 0 1
vn 0 0 1
vn 0 0 1
vn 0 0 1
vn 0 0 1
vn 0.7700177 0.6376739 0.02108862
vn 0 0 -1
vn -0.5817649 -0.813357 0
vn 0 0 1
vn 0 0 -1
vn 0 0 -1
vn 0 0 -1
vn 0 0 1
vn 0 0 1
vn 0 0 1
vn 0 0 1
vn 0 0 1
vn 0 0 1
vn 0 0 1
vn 0 0 1
vn 0.7700177 0.6376739 0.02108863
vn 0.7700177 0.6376739 0.02108863
vn 0.7700177 0.6376739 0.02108867
vn 0.7700169 0.6376752 0.02108226
vn 0.7700177 0.637674 0.02108864
vn 0.7700177 0.637674 0.02108864
vn 0.7700181 0.6376734 0.02108878
vn 0 0 -1
vn 0 0 -1
vn 0.9944229 0.1054523 -0.001748753
vn 0.9944229 0.1054523 -0.001748753
vn 0.9944229 0.1054523 -0.001748753
vn 0.9944229 0.1054523 -0.001748662
vn 0.8350636 -0.550153 0.0006224586
vn 0.8350636 -0.550153 0.0006224586
vn 0.8350636 -0.550153 0.0006224586
vn 0.8350637 -0.5501529 0.0006244659
vn 0.8350637 -0.550153 0.0006251949
vn -0.6622566 -0.7492772 0
vn -0.4880252 -0.8728296 0
vn 0 0 1
vn 0 0 1
vn 0 0 1
vn 0 0 1
vn 0 0 1
vn 0 0 1
vn -0.3214668 0.9451538 0.05782098
vn -0.3214669 0.9451538 0.05782099
vn -0.3214669 0.9451538 0.05782099
vn -0.3214668 0.9451538 0.05782116
vn -0.9976006 -0.06706679 0.0171746
vn -0.9976006 -0.06706679 0.0171746
vn -0.9976006 -0.06706679 0.0171746
vn -0.9976006 -0.06706694 0.01717602
vn -0.9976006 -0.06706695 0.01717602
vn -0.9976006 -0.06706695 0.01717602
vn -0.9976006 -0.06706694 0.01717455
vn 0 0 1
g Cylinder001_v_010_0
f 2/2/2 3/3/3 1/1/1
f 4/4/4 1/1/1 3/3/3
f 5/5/5 1/1/1 4/4/4
f 7/7/7 8/8/8 6/6/6
f 9/9/9 6/6/6 8/8/8
f 26/26/26 25/25/25 10/10/10
f 10/10/10 25/25/25 11/11/11
f 11/11/11 25/25/25 12/12/12
f 13/13/13 11/11/11 27/27/27
f 11/11/11 12/12/12 27/27/27
f 27/27/27 12/12/12 14/14/14
f 16/16/16 28/28/28 15/15/15
f 30/30/30 17/17/17 29/29/29
f 32/32/32 31/31/31 18/18/18
f 19/19/19 20/20/20 33/33/33
f 33/33/33 20/20/20 34/34/34
f 34/34/34 20/20/20 35/35/35
f 37/37/37 21/21/21 36/36/36
f 36/36/36 21/21/21 38/38/38
f 38/38/38 21/21/21 39/39/39
f 21/21/21 40/40/40 39/39/39
f 40/40/40 41/41/41 39/39/39
f 39/39/39 41/41/41 42/42/42
f 14/14/14 43/43/43 27/27/27
f 27/27/27 43/43/43 44/44/44
f 43/43/43 22/22/22 44/44/44
f 47/47/47 46/46/46 45/45/45
f 48/48/48 45/45/45 46/46/46
f 51/51/51 50/50/50 49/49/49
f 50/50/50 52/52/52 49/49/49
f 52/52/52 53/53/53 49/49/49
f 3/3/3 54/54/54 23/23/23
f 55/55/55 4/4/4 23/23/23
f 3/3/3 23/23/23 4/4/4
f 58/58/58 57/57/57 56/56/56
f 60/60/60 24/24/24 59/59/59
f 18/18/18 61/61/61 32/32/32
f 64/64/64 63/63/63 62/62/62
f 65/65/65 62/62/62 63/63/63
f 68/68/68 67/67/67 66/66/66
f 71/71/71 70/70/70 69/69/69
f 69/69/69 70/70/70 67/67/67
f 67/67/67 70/70/70 66/66/66
f 73/73/73 70/70/70 72/72/72
