g Cylinder001_v_007
v 0.2002473 -0.2230427 -0.03928073
v 0.1991343 -0.2393475 -0.03928073
v -0.1390015 -0.2281038 -0.03928073
v -0.14418 -0.2230427 -0.03928073
v 0.1989818 -0.2230427 0.03915813
v 0.2250839 0.1593431 0.03915812
v 0.14732 0.2011738 0.03915812
v -0.2396081 -0.07994588 0.03915813
v -0.1928016 -0.1787202 0.03915812
v -0.1474511 -0.2230427 0.03915813
v -0.1391481 -0.2311575 0.03915813
v -0.1914303 -0.1768636 -0.03928073
v 0.1454409 0.1998086 -0.03928073
v 0.2261481 0.1563945 -0.03928073
v -0.2379335 -0.0787292 -0.03928073
v -0.05264223 0.3087379 0.03915813
v -0.2706012 -0.01454201 0.03915813
v -0.2691446 -0.01286518 -0.03928073
v -0.0535787 0.3068654 -0.03928073
v 0.1976634 -0.2423571 0.03915812
v -0.14418 -0.2230427 -0.03928073
v -0.1390015 -0.2281038 -0.03928073
v -0.1474511 -0.2230427 0.03915813
v -0.1928016 -0.1787202 0.03915812
v -0.1914303 -0.1768636 -0.03928073
v -0.05264223 0.3087379 0.03915813
v -0.2396081 -0.07994588 0.03915813
v -0.2379335 -0.0787292 -0.03928073
v -0.1928016 -0.1787202 0.03915812
v -0.1914303 -0.1768636 -0.03928073
v -0.2396081 -0.07994588 0.03915813
v -0.2706012 -0.01454201 0.03915813
v -0.2691446 -0.01286518 -0.03928073
v -0.2691446 -0.01286518 -0.03928073
v -0.05264223 0.3087379 0.03915813
v -0.2706012 -0.01454201 0.03915813
v -0.0535787 0.3068654 -0.03928073
v -0.1391481 -0.2311575 0.03915813
v -0.1391481 -0.2311575 0.03915813
v 0.1991343 -0.2393475 -0.03928073
v -0.1390015 -0.2281038 -0.03928073
v 0.1976634 -0.2423571 0.03915812
v 0.1454409 0.1998086 -0.03928073
v -0.05264223 0.3087379 0.03915813
v -0.0535787 0.3068654 -0.03928073
v 0.2261481 0.1563945 -0.03928073
v 0.14732 0.2011738 0.03915812
v 0.2250839 0.1593431 0.03915812
v 0.2002473 -0.2230427 -0.03928073
v 0.2250839 0.1593431 0.03915812
v 0.2261481 0.1563945 -0.03928073
v 0.1989818 -0.2230427 0.03915813
v 0.1976634 -0.2423571 0.03915812
v 0.1991343 -0.2393475 -0.03928073
vt 0.6528515 0
vt 0.6511927 0
vt 0.5709909 0
vt 0.5701799 0
vt 0.6525477 0.9999999
vt 0.751095 0.9999999
vt 0.7425247 0.9999999
vt 0.5818085 0.9999999
vt 0.5692058 0.9999999
vt 0.5693947 0.9999999
vt 0.01999952 1.061018
vt 0.0919515 0.9957713
vt 0.7417442 0
vt 0.7506388 0
vt 0.582504 0
vt 0.7651561 0.9999999
vt 0.6056861 0.9999999
vt 0.7719318 0
vt 0.7642688 0
vt 0.6505827 0.9999999
vt 0.09027237 1.054739
vt 0.09008834 1.061201
vt 0.02029458 1.050656
vt 0.02190619 0.9940599
vt 0.5699831 0
vt 0.7651561 0.9999999
vt 0.5818085 0.9999999
vt 0.8370087 0
vt 0.9349441 0.07005944
vt 0.9339703 0
vt 0.8373501 0.07005944
vt 0.7727278 0.07005944
vt 0.6065496 0
vt 0.645177 0
vt 0.2990214 0.07003631
vt 0.6471455 0.07003631
vt 0.300875 0
vt 0.570695 0.9999999
vt 0.0008485985 0
vt 0.07054639 0.3022098
vt 0.07093754 0.0001310348
vt 0.0004589747 0.3008956
vt 0.005677247 0.2017565
vt 0.07862592 0.000949316
vt 0.008571513 0
vt 0.004503553 0.2835735
vt 0.07571793 0.2036615
vt 0.07458704 0.2824947
vt 0.01736237 0
vt 0.3595016 0.07004496
vt 0.3569397 0
vt 0.01728542 0.07004496
vt 0 0.07004496
vt 0.002770405 0
vn 0 0 -1
vn 0 0 -1
vn 0 0 -1
vn 0 0 -1
vn 0 0 1
vn 0 0 1
vn 0 0 1
vn 0 0 1
vn 0 0 1
vn 0 0 1
vn -0.6986579 -0.7148623 -0.02913611
vn -0.6986569 -0.7148634 -0.0291355
vn 0 0 -1
vn 0 0 -1
vn 0 0 -1
vn 0 0 1
vn 0 0 1
vn -0.9033682 -0.4280816 -0.0259263
vn 0 0 -1
vn 0 0 1
vn -0.698658 -0.7148623 -0.02913612
vn -0.698658 -0.7148623 -0.02913611
vn -0.698658 -0.7148623 -0.02913611
vn -0.6986573 -0.7148629 -0.02913608
vn 0 0 -1
vn 0 0 1
vn 0 0 1
vn -0.9033682 -0.4280815 -0.02592608
vn -0.9033682 -0.4280815 -0.02592608
vn -0.9033682 -0.4280815 -0.02592608
vn -0.9033682 -0.4280816 -0.02592613
vn -0.9033682 -0.4280816 -0.02592619
vn 0 0 -1
vn -0.8291469 0.5590203 -0.003446203
vn -0.8291469 0.5590202 -0.003446203
vn -0.8291469 0.5590202 -0.003446203
vn -0.8291469 0.5590201 -0.003445381
vn 0 0 1
vn -0.03320841 -0.9986896 -0.0389415
vn -0.03320841 -0.9986896 -0.0389415
vn -0.03320841 -0.9986896 -0.0389415
vn -0.03320841 -0.9986896 -0.03894152
vn 0.4735622 0.8803566 -0.02666878
vn 0.4735622 0.8803566 -0.02666878
vn 0.4735622 0.8803566 -0.02666878
vn 0.4735623 0.8803565 -0.02666834
vn 0.4735625 0.8803564 -0.02666747
vn 0.4735621 0.8803567 -0.02666794
vn 0.9975491 -0.06809378 0.01609379
vn 0.9975491 -0.06809378 0.01609379
vn 0.9975491 -0.06809378 0.01609379
vn 0.9975491 -0.0680939 0.01609433
vn 0.9975492 -0.06809128 0.01609435
vn 0.997549 -0.06809488 0.01609346
g Cylinder001_v_007_0
f 2/2/2 3/3/3 1/1/1
f 4/4/4 1/1/1 3/3/3
f 6/6/6 7/7/7 5/5/5
f 7/7/7 8/8/8 5/5/5
f 8/8/8 9/9/9 5/5/5
f 5/5/5 9/9/9 10/10/10
f 22/22/22 11/11/11 21/21/21
f 11/11/11 23/23/23 21/21/21
f 23/23/23 24/24/24 21/21/21
f 24/24/24 12/12/12 21/21/21
f 14/14/14 1/1/1 13/13/13
f 4/4/4 25/25/25 1/1/1
f 1/1/1 25/25/25 13/13/13
f 13/13/13 25/25/25 15/15/15
f 7/7/7 16/16/16 8/8/8
f 17/17/17 27/27/27 26/26/26
f 30/30/30 29/29/29 28/28/28
f 28/28/28 29/29/29 18/18/18
f 29/29/29 31/31/31 18/18/18
f 31/31/31 32/32/32 18/18/18
f 33/33/33 19/19/19 15/15/15
f 13/13/13 15/15/15 19/19/19
f 36/36/36 35/35/35 34/34/34
f 37/37/37 34/34/34 35/35/35
f 10/10/10 38/38/38 5/5/5
f 20/20/20 5/5/5 38/38/38
f 41/41/41 40/40/40 39/39/39
f 42/42/42 39/39/39 40/40/40
f 45/45/45 44/44/44 43/43/43
f 43/43/43 44/44/44 46/46/46
f 44/44/44 47/47/47 46/46/46
f 47/47/47 48/48/48 46/46/46
f 51/51/51 50/50/50 49/49/49
f 50/50/50 52/52/52 49/49/49
f 52/52/52 53/53/53 49/49/49
f 53/53/53 54/54/54 49/49/49
