g FX_Mesh_Cylinder
v 1.27 0 -0.635
v 1.207842 0.3924516 -0.635
v 1.027452 0.7464873 -0.635
v 0.7464873 1.027452 -0.635
v 0.3924516 1.207842 -0.635
v -5.551346E-08 1.27 -0.635
v -0.3924516 1.207842 -0.635
v -0.7464872 1.027452 -0.635
v -1.027452 0.7464872 -0.635
v -1.207842 0.3924513 -0.635
v -1.27 -4.138185E-07 -0.635
v -1.207842 -0.3924521 -0.635
v -1.027451 -0.7464879 -0.635
v -0.7464865 -1.027452 -0.635
v -0.3924505 -1.207842 -0.635
v 1.226311E-06 -1.27 -0.635
v 0.3924529 -1.207841 -0.635
v 0.7464885 -1.027451 -0.635
v 1.027453 -0.7464859 -0.635
v 1.207842 -0.3924498 -0.635
v 1.27 0 -0.2116666
v 1.207842 0.3924516 -0.2116666
v 1.027452 0.7464873 -0.2116666
v 0.7464873 1.027452 -0.2116666
v 0.3924516 1.207842 -0.2116666
v -5.551346E-08 1.27 -0.2116666
v -0.3924516 1.207842 -0.2116666
v -0.7464872 1.027452 -0.2116666
v -1.027452 0.7464872 -0.2116666
v -1.207842 0.3924513 -0.2116666
v -1.27 -4.138185E-07 -0.2116666
v -1.207842 -0.3924521 -0.2116666
v -1.027451 -0.7464879 -0.2116666
v -0.7464865 -1.027452 -0.2116666
v -0.3924505 -1.207842 -0.2116666
v 1.226311E-06 -1.27 -0.2116666
v 0.3924529 -1.207841 -0.2116666
v 0.7464885 -1.027451 -0.2116666
v 1.027453 -0.7464859 -0.2116666
v 1.207842 -0.3924498 -0.2116666
v 1.27 0 0.2116667
v 1.207842 0.3924516 0.2116667
v 1.027452 0.7464873 0.2116667
v 0.7464873 1.027452 0.2116667
v 0.3924516 1.207842 0.2116667
v -5.551346E-08 1.27 0.2116667
v -0.3924516 1.207842 0.2116667
v -0.7464872 1.027452 0.2116667
v -1.027452 0.7464872 0.2116667
v -1.207842 0.3924513 0.2116667
v -1.27 -4.138185E-07 0.2116667
v -1.207842 -0.3924521 0.2116667
v -1.027451 -0.7464879 0.2116667
v -0.7464865 -1.027452 0.2116667
v -0.3924505 -1.207842 0.2116667
v 1.226311E-06 -1.27 0.2116667
v 0.3924529 -1.207841 0.2116667
v 0.7464885 -1.027451 0.2116667
v 1.027453 -0.7464859 0.2116667
v 1.207842 -0.3924498 0.2116667
v 1.27 0 0.635
v 1.207842 0.3924516 0.635
v 1.027452 0.7464873 0.635
v 0.7464873 1.027452 0.635
v 0.3924516 1.207842 0.635
v -5.551346E-08 1.27 0.635
v -0.3924516 1.207842 0.635
v -0.7464872 1.027452 0.635
v -1.027452 0.7464872 0.635
v -1.207842 0.3924513 0.635
v -1.27 -4.138185E-07 0.635
v -1.207842 -0.3924521 0.635
v -1.027451 -0.7464879 0.635
v -0.7464865 -1.027452 0.635
v -0.3924505 -1.207842 0.635
v 1.226311E-06 -1.27 0.635
v 0.3924529 -1.207841 0.635
v 0.7464885 -1.027451 0.635
v 1.027453 -0.7464859 0.635
v 1.207842 -0.3924498 0.635
v 0.3924516 1.207842 -0.635
v 0.3924516 1.207842 -0.2116666
v 0.3924516 1.207842 0.2116667
v 0.3924516 1.207842 0.635
vt 0.7997 0.0005
vt 0.8496501 0.0005
vt 0.8996001 0.0005
vt 0.9495502 0.0005
vt 0.9995 0.0005
vt 0.05045001 0.0005
vt 0.1004 0.0005
vt 0.15035 0.0005
vt 0.2003 0.0005
vt 0.25025 0.0005
vt 0.3002001 0.0005
vt 0.3501501 0.0005
vt 0.4001001 0.0005
vt 0.4500501 0.0005
vt 0.5000001 0.0005
vt 0.5499502 0.0005
vt 0.5999002 0.0005
vt 0.6498502 0.0005
vt 0.6998003 0.0005
vt 0.7497503 0.0005
vt 0.7997 0.3335
vt 0.8496501 0.3335
vt 0.8996001 0.3335
vt 0.9495502 0.3335
vt 0.9995 0.3335
vt 0.05045001 0.3335
vt 0.1004 0.3335
vt 0.15035 0.3335
vt 0.2003 0.3335
vt 0.25025 0.3335
vt 0.3002001 0.3335
vt 0.3501501 0.3335
vt 0.4001001 0.3335
vt 0.4500501 0.3335
vt 0.5000001 0.3335
vt 0.5499502 0.3335
vt 0.5999002 0.3335
vt 0.6498502 0.3335
vt 0.6998003 0.3335
vt 0.7497503 0.3335
vt 0.7997 0.6665
vt 0.8496501 0.6665
vt 0.8996001 0.6665
vt 0.9495502 0.6665
vt 0.9995 0.6665
vt 0.05045001 0.6665
vt 0.1004 0.6665
vt 0.15035 0.6665
vt 0.2003 0.6665
vt 0.25025 0.6665
vt 0.3002001 0.6665
vt 0.3501501 0.6665
vt 0.4001001 0.6665
vt 0.4500501 0.6665
vt 0.5000001 0.6665
vt 0.5499502 0.6665
vt 0.5999002 0.6665
vt 0.6498502 0.6665
vt 0.6998003 0.6665
vt 0.7497503 0.6665
vt 0.7997 0.9995
vt 0.8496501 0.9995
vt 0.8996001 0.9995
vt 0.9495502 0.9995
vt 0.9995 0.9995
vt 0.05045001 0.9995
vt 0.1004 0.9995
vt 0.15035 0.9995
vt 0.2003 0.9995
vt 0.25025 0.9995
vt 0.3002001 0.9995
vt 0.3501501 0.9995
vt 0.4001001 0.9995
vt 0.4500501 0.9995
vt 0.5000001 0.9995
vt 0.5499502 0.9995
vt 0.5999002 0.9995
vt 0.6498502 0.9995
vt 0.6998003 0.9995
vt 0.7497503 0.9995
vt 0.0005 0.0005
vt 0.0005 0.3335
vt 0.0005 0.6665
vt 0.0005 0.9995
vn 1 3.793826E-07 0
vn 0.9510565 0.3090169 0
vn 0.809017 0.5877852 0
vn 0.5877852 0.809017 0
vn 0.3090169 0.9510565 0
vn 0 1 0
vn -0.309017 0.9510565 0
vn -0.5877852 0.809017 0
vn -0.809017 0.5877852 0
vn -0.9510565 0.3090168 0
vn -1 -3.841849E-07 0
vn -0.9510564 -0.3090174 0
vn -0.8090166 -0.5877857 0
vn -0.5877846 -0.8090174 0
vn -0.3090162 -0.9510568 0
vn 8.548114E-07 -1 0
vn 0.309018 -0.9510562 0
vn 0.5877863 -0.8090163 0
vn 0.8090178 -0.5877842 0
vn 0.9510568 -0.309016 0
vn 1 3.793826E-07 0
vn 0.9510565 0.3090169 0
vn 0.809017 0.5877852 0
vn 0.5877852 0.809017 0
vn 0.3090169 0.9510565 0
vn 0 1 0
vn -0.3090171 0.9510565 0
vn -0.5877852 0.809017 0
vn -0.809017 0.5877852 0
vn -0.9510565 0.3090168 0
vn -1 -3.841849E-07 0
vn -0.9510564 -0.3090174 0
vn -0.8090166 -0.5877857 0
vn -0.5877846 -0.8090174 0
vn -0.3090162 -0.9510568 0
vn 8.548114E-07 -1 0
vn 0.309018 -0.9510562 0
vn 0.5877863 -0.8090163 0
vn 0.8090178 -0.5877842 0
vn 0.9510568 -0.309016 0
vn 1 3.817837E-07 0
vn 0.9510565 0.3090169 0
vn 0.809017 0.5877852 0
vn 0.5877852 0.809017 0
vn 0.3090169 0.9510565 0
vn 0 1 0
vn -0.3090171 0.9510565 0
vn -0.5877853 0.809017 0
vn -0.809017 0.5877852 0
vn -0.9510565 0.3090168 0
vn -1 -3.769815E-07 0
vn -0.9510564 -0.3090174 0
vn -0.8090166 -0.5877857 0
vn -0.5877846 -0.8090174 0
vn -0.3090162 -0.9510568 0
vn 8.572125E-07 -1 0
vn 0.309018 -0.9510562 0
vn 0.5877863 -0.8090163 0
vn 0.8090178 -0.5877842 0
vn 0.9510568 -0.309016 0
vn 1 3.841849E-07 0
vn 0.9510565 0.3090169 0
vn 0.809017 0.5877852 0
vn 0.5877852 0.809017 0
vn 0.3090169 0.9510565 0
vn 0 1 0
vn -0.3090171 0.9510565 0
vn -0.5877853 0.809017 0
vn -0.809017 0.5877852 0
vn -0.9510565 0.3090168 0
vn -1 -3.69778E-07 0
vn -0.9510564 -0.3090174 0
vn -0.8090166 -0.5877857 0
vn -0.5877846 -0.8090174 0
vn -0.3090162 -0.9510568 0
vn 8.596137E-07 -1 0
vn 0.309018 -0.9510562 0
vn 0.5877863 -0.8090163 0
vn 0.8090178 -0.5877842 0
vn 0.9510568 -0.309016 0
vn 0.3090169 0.9510565 0
vn 0.3090169 0.9510565 0
vn 0.3090169 0.9510565 0
vn 0.3090169 0.9510565 0
g FX_Mesh_Cylinder_0
f 22/22/22 21/21/21 1/1/1
f 2/2/2 22/22/22 1/1/1
f 23/23/23 22/22/22 2/2/2
f 3/3/3 23/23/23 2/2/2
f 24/24/24 23/23/23 3/3/3
f 4/4/4 24/24/24 3/3/3
f 25/25/25 24/24/24 4/4/4
f 5/5/5 25/25/25 4/4/4
f 26/26/26 82/82/82 81/81/81
f 6/6/6 26/26/26 81/81/81
f 27/27/27 26/26/26 6/6/6
f 7/7/7 27/27/27 6/6/6
f 28/28/28 27/27/27 7/7/7
f 8/8/8 28/28/28 7/7/7
f 29/29/29 28/28/28 8/8/8
f 9/9/9 29/29/29 8/8/8
f 30/30/30 29/29/29 9/9/9
f 10/10/10 30/30/30 9/9/9
f 31/31/31 30/30/30 10/10/10
f 11/11/11 31/31/31 10/10/10
f 32/32/32 31/31/31 11/11/11
f 12/12/12 32/32/32 11/11/11
f 33/33/33 32/32/32 12/12/12
f 13/13/13 33/33/33 12/12/12
f 34/34/34 33/33/33 13/13/13
f 14/14/14 34/34/34 13/13/13
f 35/35/35 34/34/34 14/14/14
f 15/15/15 35/35/35 14/14/14
f 36/36/36 35/35/35 15/15/15
f 16/16/16 36/36/36 15/15/15
f 37/37/37 36/36/36 16/16/16
f 17/17/17 37/37/37 16/16/16
f 38/38/38 37/37/37 17/17/17
f 18/18/18 38/38/38 17/17/17
f 39/39/39 38/38/38 18/18/18
f 19/19/19 39/39/39 18/18/18
f 40/40/40 39/39/39 19/19/19
f 20/20/20 40/40/40 19/19/19
f 21/21/21 40/40/40 20/20/20
f 1/1/1 21/21/21 20/20/20
f 42/42/42 41/41/41 21/21/21
f 22/22/22 42/42/42 21/21/21
f 43/43/43 42/42/42 22/22/22
f 23/23/23 43/43/43 22/22/22
f 44/44/44 43/43/43 23/23/23
f 24/24/24 44/44/44 23/23/23
f 45/45/45 44/44/44 24/24/24
f 25/25/25 45/45/45 24/24/24
f 46/46/46 83/83/83 82/82/82
f 26/26/26 46/46/46 82/82/82
f 47/47/47 46/46/46 26/26/26
f 27/27/27 47/47/47 26/26/26
f 48/48/48 47/47/47 27/27/27
f 28/28/28 48/48/48 27/27/27
f 49/49/49 48/48/48 28/28/28
f 29/29/29 49/49/49 28/28/28
f 50/50/50 49/49/49 29/29/29
f 30/30/30 50/50/50 29/29/29
f 51/51/51 50/50/50 30/30/30
f 31/31/31 51/51/51 30/30/30
f 52/52/52 51/51/51 31/31/31
f 32/32/32 52/52/52 31/31/31
f 53/53/53 52/52/52 32/32/32
f 33/33/33 53/53/53 32/32/32
f 54/54/54 53/53/53 33/33/33
f 34/34/34 54/54/54 33/33/33
f 55/55/55 54/54/54 34/34/34
f 35/35/35 55/55/55 34/34/34
f 56/56/56 55/55/55 35/35/35
f 36/36/36 56/56/56 35/35/35
f 57/57/57 56/56/56 36/36/36
f 37/37/37 57/57/57 36/36/36
f 58/58/58 57/57/57 37/37/37
f 38/38/38 58/58/58 37/37/37
f 59/59/59 58/58/58 38/38/38
f 39/39/39 59/59/59 38/38/38
f 60/60/60 59/59/59 39/39/39
f 40/40/40 60/60/60 39/39/39
f 41/41/41 60/60/60 40/40/40
f 21/21/21 41/41/41 40/40/40
f 62/62/62 61/61/61 41/41/41
f 42/42/42 62/62/62 41/41/41
f 63/63/63 62/62/62 42/42/42
f 43/43/43 63/63/63 42/42/42
f 64/64/64 63/63/63 43/43/43
f 44/44/44 64/64/64 43/43/43
f 65/65/65 64/64/64 44/44/44
f 45/45/45 65/65/65 44/44/44
f 66/66/66 84/84/84 83/83/83
f 46/46/46 66/66/66 83/83/83
f 67/67/67 66/66/66 46/46/46
f 47/47/47 67/67/67 46/46/46
f 68/68/68 67/67/67 47/47/47
f 48/48/48 68/68/68 47/47/47
f 69/69/69 68/68/68 48/48/48
f 49/49/49 69/69/69 48/48/48
f 70/70/70 69/69/69 49/49/49
f 50/50/50 70/70/70 49/49/49
f 71/71/71 70/70/70 50/50/50
f 51/51/51 71/71/71 50/50/50
f 72/72/72 71/71/71 51/51/51
f 52/52/52 72/72/72 51/51/51
f 73/73/73 72/72/72 52/52/52
f 53/53/53 73/73/73 52/52/52
f 74/74/74 73/73/73 53/53/53
f 54/54/54 74/74/74 53/53/53
f 75/75/75 74/74/74 54/54/54
f 55/55/55 75/75/75 54/54/54
f 76/76/76 75/75/75 55/55/55
f 56/56/56 76/76/76 55/55/55
f 77/77/77 76/76/76 56/56/56
f 57/57/57 77/77/77 56/56/56
f 78/78/78 77/77/77 57/57/57
f 58/58/58 78/78/78 57/57/57
f 79/79/79 78/78/78 58/58/58
f 59/59/59 79/79/79 58/58/58
f 80/80/80 79/79/79 59/59/59
f 60/60/60 80/80/80 59/59/59
f 61/61/61 80/80/80 60/60/60
f 41/41/41 61/61/61 60/60/60
