g FX_Mesh_Sphere_HighPol
v 0 0 1.073378
v 1.073378 0 0
v 0 1.073378 0
v -1.073378 0 0
v 0 -1.073378 0
v 0 0 -1.073378
v 0.331692 0 1.020843
v 0.6309155 0 0.8683808
v 0.8683808 0 0.6309155
v 1.020843 0 0.331692
v 0 0.331692 1.020843
v 0 0.6309155 0.8683808
v 0 0.8683808 0.6309155
v 0 1.020843 0.331692
v -0.331692 0 1.020843
v -0.6309155 0 0.8683808
v -0.8683808 0 0.6309155
v -1.020843 0 0.331692
v 0 -0.331692 1.020843
v 0 -0.6309155 0.8683808
v 0 -0.8683808 0.6309155
v 0 -1.020843 0.331692
v 0.331692 0 -1.020843
v 0.6309155 0 -0.8683808
v 0.8683808 0 -0.6309155
v 1.020843 0 -0.331692
v 0 0.331692 -1.020843
v 0 0.6309155 -0.8683808
v 0 0.8683808 -0.6309155
v 0 1.020843 -0.331692
v -0.331692 0 -1.020843
v -0.6309155 0 -0.8683808
v -0.8683808 0 -0.6309155
v -1.020843 0 -0.331692
v 0 -0.331692 -1.020843
v 0 -0.6309155 -0.8683808
v 0 -0.8683808 -0.6309155
v 0 -1.020843 -0.331692
v 1.020843 0.331692 0
v 0.8683808 0.6309155 0
v 0.6309155 0.8683808 0
v 0.331692 1.020843 0
v -0.331692 1.020843 0
v -0.6309155 0.8683808 0
v -0.8683808 0.6309155 0
v -1.020843 0.331692 0
v -1.020843 -0.331692 0
v -0.8683808 -0.6309155 0
v -0.6309155 -0.8683808 0
v -0.331692 -1.020843 0
v 0.331692 -1.020843 0
v 0.6309155 -0.8683808 0
v 0.8683808 -0.6309155 0
v 1.020843 -0.331692 0
v 0.3468341 0.3468341 0.9547523
v 0.6715176 0.3654703 0.7534157
v 0.3654703 0.6715176 0.7534157
v 0.9169035 0.3696898 0.4180395
v 0.6896669 0.6896669 0.4481727
v 0.3696898 0.9169035 0.4180395
v -0.3468341 0.3468341 0.9547523
v -0.3654703 0.6715176 0.7534157
v -0.6715176 0.3654703 0.7534157
v -0.3696898 0.9169035 0.4180395
v -0.6896669 0.6896669 0.4481727
v -0.9169035 0.3696898 0.4180395
v -0.3468341 -0.3468341 0.9547523
v -0.6715176 -0.3654703 0.7534157
v -0.3654703 -0.6715176 0.7534157
v -0.9169035 -0.3696898 0.4180395
v -0.6896669 -0.6896669 0.4481727
v -0.3696898 -0.9169035 0.4180395
v 0.3468341 -0.3468341 0.9547523
v 0.3654703 -0.6715176 0.7534157
v 0.6715176 -0.3654703 0.7534157
v 0.3696898 -0.9169035 0.4180395
v 0.6896669 -0.6896669 0.4481727
v 0.9169035 -0.3696898 0.4180395
v 0.3468341 0.3468341 -0.9547523
v 0.3654703 0.6715176 -0.7534157
v 0.6715176 0.3654703 -0.7534157
v 0.3696898 0.9169035 -0.4180395
v 0.6896669 0.6896669 -0.4481727
v 0.9169035 0.3696898 -0.4180395
v -0.3468341 0.3468341 -0.9547523
v -0.6715176 0.3654703 -0.7534157
v -0.3654703 0.6715176 -0.7534157
v -0.9169035 0.3696898 -0.4180395
v -0.6896669 0.6896669 -0.4481727
v -0.3696898 0.9169035 -0.4180395
v -0.3468341 -0.3468341 -0.9547523
v -0.3654703 -0.6715176 -0.7534157
v -0.6715176 -0.3654703 -0.7534157
v -0.3696898 -0.9169035 -0.4180395
v -0.6896669 -0.6896669 -0.4481727
v -0.9169035 -0.3696898 -0.4180395
v 0.3468341 -0.3468341 -0.9547523
v 0.6715176 -0.3654703 -0.7534157
v 0.3654703 -0.6715176 -0.7534157
v 0.9169035 -0.3696898 -0.4180395
v 0.6896669 -0.6896669 -0.4481727
v 0.3696898 -0.9169035 -0.4180395
v 0 0 1.073378
v 0 0 1.073378
v -0.331692 0 1.020843
v -0.6309155 0 0.8683808
v -0.8683808 0 0.6309155
v -1.020843 0 0.331692
v -1.073378 0 0
v 0 0 1.073378
v 0 0 -1.073378
v 0 0 -1.073378
v -0.331692 0 -1.020843
v -0.6309155 0 -0.8683808
v -0.8683808 0 -0.6309155
v -1.020843 0 -0.331692
v 0 0 -1.073378
vt 0.625 1
vt 0.5 0.5
vt 0.75 0.5
vt 1 0.5
vt 0.25 0.5
vt 0.625 0
vt 0.5 0.9
vt 0.5 0.8
vt 0.5 0.7
vt 0.5 0.6
vt 0.75 0.9
vt 0.75 0.8
vt 0.75 0.7
vt 0.75 0.6
vt 1 0.9
vt 1 0.8
vt 1 0.7
vt 1 0.6
vt 0.25 0.9
vt 0.25 0.8
vt 0.25 0.7
vt 0.25 0.6
vt 0.5 0.1
vt 0.5 0.2
vt 0.5 0.3
vt 0.5 0.4
vt 0.75 0.1
vt 0.75 0.2
vt 0.75 0.3
vt 0.75 0.4
vt 1 0.1
vt 1 0.2
vt 1 0.3
vt 1 0.4
vt 0.25 0.1
vt 0.25 0.2
vt 0.25 0.3
vt 0.25 0.4
vt 0.55 0.5
vt 0.6 0.5
vt 0.65 0.5
vt 0.7 0.5
vt 0.8 0.5
vt 0.85 0.5
vt 0.9 0.5
vt 0.95 0.5
vt 0.05000002 0.5
vt 0.1 0.5
vt 0.15 0.5
vt 0.2 0.5
vt 0.3 0.5
vt 0.35 0.5
vt 0.4 0.5
vt 0.45 0.5
vt 0.625 0.848936
vt 0.5793251 0.7476696
vt 0.6706749 0.7476696
vt 0.5609972 0.6273389
vt 0.625 0.6371058
vt 0.6890028 0.6273389
vt 0.875 0.848936
vt 0.829325 0.7476696
vt 0.9206749 0.7476696
vt 0.8109972 0.6273389
vt 0.875 0.6371058
vt 0.9390029 0.6273389
vt 0.125 0.848936
vt 0.07932509 0.7476696
vt 0.1706749 0.7476696
vt 0.06099719 0.6273389
vt 0.125 0.6371058
vt 0.1890028 0.6273389
vt 0.375 0.848936
vt 0.3293251 0.7476696
vt 0.4206749 0.7476696
vt 0.3109972 0.6273389
vt 0.375 0.6371058
vt 0.4390028 0.6273389
vt 0.625 0.151064
vt 0.6706749 0.2523304
vt 0.5793251 0.2523304
vt 0.6890028 0.3726611
vt 0.625 0.3628942
vt 0.5609972 0.3726611
vt 0.875 0.151064
vt 0.9206749 0.2523304
vt 0.829325 0.2523304
vt 0.9390029 0.3726611
vt 0.875 0.3628942
vt 0.8109972 0.3726611
vt 0.125 0.151064
vt 0.1706749 0.2523304
vt 0.07932509 0.2523304
vt 0.1890028 0.3726611
vt 0.125 0.3628942
vt 0.06099719 0.3726611
vt 0.375 0.151064
vt 0.4206749 0.2523304
vt 0.3293251 0.2523304
vt 0.4390028 0.3726611
vt 0.375 0.3628942
vt 0.3109972 0.3726611
vt 0.875 1
vt 0.125 1
vt 0 0.9
vt 0 0.8
vt 0 0.7
vt 0 0.6
vt 0 0.5
vt 0.375 1
vt 0.875 0
vt 0.125 0
vt 0 0.1
vt 0 0.2
vt 0 0.3
vt 0 0.4
vt 0.375 0
vn 0 0 1
vn 1 0 0
vn 0 1 0
vn -1 0 0
vn 0 -1 0
vn 0 0 -1
vn 0.3058234 0 0.9520883
vn 0.5842923 0 0.8115433
vn 0.8089231 0 0.5879145
vn 0.9531685 0 0.3024398
vn 0 0.3058234 0.9520883
vn 0 0.5842923 0.8115433
vn 0 0.8089231 0.5879145
vn 0 0.9531685 0.3024398
vn -0.3058234 0 0.9520883
vn -0.5842923 0 0.8115433
vn -0.8089231 0 0.5879145
vn -0.9531685 0 0.3024398
vn 0 -0.3058234 0.9520883
vn 0 -0.5842923 0.8115433
vn 0 -0.8089231 0.5879145
vn 0 -0.9531685 0.3024398
vn 0.3058234 0 -0.9520883
vn 0.5842923 0 -0.8115433
vn 0.8089231 0 -0.5879145
vn 0.9531685 0 -0.3024398
vn 0 0.3058234 -0.9520883
vn 0 0.5842923 -0.8115433
vn 0 0.8089231 -0.5879145
vn 0 0.9531685 -0.3024398
vn -0.3058234 0 -0.9520883
vn -0.5842923 0 -0.8115433
vn -0.8089231 0 -0.5879145
vn -0.9531685 0 -0.3024398
vn 0 -0.3058234 -0.9520883
vn 0 -0.5842923 -0.8115433
vn 0 -0.8089231 -0.5879145
vn 0 -0.9531685 -0.3024398
vn 0.9499701 0.312341 0
vn 0.8081813 0.5889337 0
vn 0.5889337 0.8081813 0
vn 0.312341 0.9499701 0
vn -0.312341 0.9499701 0
vn -0.5889337 0.8081813 0
vn -0.8081813 0.5889337 0
vn -0.9499701 0.312341 0
vn -0.9499701 -0.312341 0
vn -0.8081813 -0.5889337 0
vn -0.5889337 -0.8081813 0
vn -0.312341 -0.9499701 0
vn 0.312341 -0.9499701 0
vn 0.5889337 -0.8081813 0
vn 0.8081813 -0.5889337 0
vn 0.9499701 -0.312341 0
vn 0.3253603 0.3253603 0.8878521
vn 0.6283835 0.347937 0.6957543
vn 0.347937 0.6283834 0.6957543
vn 0.8544202 0.35221 0.3819871
vn 0.6454322 0.6454321 0.4084537
vn 0.35221 0.8544202 0.3819871
vn -0.3253603 0.3253603 0.8878521
vn -0.347937 0.6283835 0.6957543
vn -0.6283834 0.347937 0.6957543
vn -0.35221 0.8544202 0.3819871
vn -0.6454321 0.6454322 0.4084537
vn -0.8544202 0.35221 0.3819871
vn -0.3253603 -0.3253603 0.8878521
vn -0.6283835 -0.347937 0.6957543
vn -0.347937 -0.6283834 0.6957543
vn -0.8544202 -0.35221 0.3819871
vn -0.6454322 -0.6454321 0.4084537
vn -0.35221 -0.8544202 0.3819871
vn 0.3253603 -0.3253603 0.8878521
vn 0.347937 -0.6283835 0.6957543
vn 0.6283834 -0.347937 0.6957543
vn 0.35221 -0.8544202 0.3819871
vn 0.6454321 -0.6454322 0.4084537
vn 0.8544202 -0.35221 0.3819871
vn 0.3253603 0.3253603 -0.8878521
vn 0.347937 0.6283835 -0.6957543
vn 0.6283834 0.347937 -0.6957543
vn 0.35221 0.8544202 -0.3819871
vn 0.6454321 0.6454322 -0.4084537
vn 0.8544202 0.35221 -0.3819871
vn -0.3253603 0.3253603 -0.8878521
vn -0.6283835 0.347937 -0.6957543
vn -0.347937 0.6283834 -0.6957543
vn -0.8544202 0.35221 -0.3819871
vn -0.6454322 0.6454321 -0.4084537
vn -0.35221 0.8544202 -0.3819871
vn -0.3253603 -0.3253603 -0.8878521
vn -0.347937 -0.6283835 -0.6957543
vn -0.6283834 -0.347937 -0.6957543
vn -0.35221 -0.8544202 -0.3819871
vn -0.6454321 -0.6454322 -0.4084537
vn -0.8544202 -0.35221 -0.3819871
vn 0.3253603 -0.3253603 -0.8878521
vn 0.6283835 -0.347937 -0.6957543
vn 0.347937 -0.6283834 -0.6957543
vn 0.8544202 -0.35221 -0.3819871
vn 0.6454322 -0.6454321 -0.4084537
vn 0.35221 -0.8544202 -0.3819871
vn 0 0 1
vn 0 0 1
vn -0.3058234 0 0.9520883
vn -0.5842923 0 0.8115433
vn -0.8089231 0 0.5879145
vn -0.9531685 0 0.3024398
vn -1 0 0
vn 0 0 1
vn 0 0 -1
vn 0 0 -1
vn -0.3058234 0 -0.9520883
vn -0.5842923 0 -0.8115433
vn -0.8089231 0 -0.5879145
vn -0.9531685 0 -0.3024398
vn 0 0 -1
g FX_Mesh_Sphere_HighPol_0
f 7/7/7 11/11/11 1/1/1
f 8/8/8 55/55/55 7/7/7
f 55/55/55 11/11/11 7/7/7
f 55/55/55 12/12/12 11/11/11
f 9/9/9 56/56/56 8/8/8
f 56/56/56 55/55/55 8/8/8
f 56/56/56 57/57/57 55/55/55
f 57/57/57 12/12/12 55/55/55
f 57/57/57 13/13/13 12/12/12
f 10/10/10 58/58/58 9/9/9
f 58/58/58 56/56/56 9/9/9
f 58/58/58 59/59/59 56/56/56
f 59/59/59 57/57/57 56/56/56
f 59/59/59 60/60/60 57/57/57
f 60/60/60 13/13/13 57/57/57
f 60/60/60 14/14/14 13/13/13
f 2/2/2 39/39/39 10/10/10
f 39/39/39 58/58/58 10/10/10
f 39/39/39 40/40/40 58/58/58
f 40/40/40 59/59/59 58/58/58
f 40/40/40 41/41/41 59/59/59
f 41/41/41 60/60/60 59/59/59
f 41/41/41 42/42/42 60/60/60
f 42/42/42 14/14/14 60/60/60
f 42/42/42 3/3/3 14/14/14
f 11/11/11 15/15/15 103/103/103
f 12/12/12 61/61/61 11/11/11
f 61/61/61 15/15/15 11/11/11
f 61/61/61 16/16/16 15/15/15
f 13/13/13 62/62/62 12/12/12
f 62/62/62 61/61/61 12/12/12
f 62/62/62 63/63/63 61/61/61
f 63/63/63 16/16/16 61/61/61
f 63/63/63 17/17/17 16/16/16
f 14/14/14 64/64/64 13/13/13
f 64/64/64 62/62/62 13/13/13
f 64/64/64 65/65/65 62/62/62
f 65/65/65 63/63/63 62/62/62
f 65/65/65 66/66/66 63/63/63
f 66/66/66 17/17/17 63/63/63
f 66/66/66 18/18/18 17/17/17
f 3/3/3 43/43/43 14/14/14
f 43/43/43 64/64/64 14/14/14
f 43/43/43 44/44/44 64/64/64
f 44/44/44 65/65/65 64/64/64
f 44/44/44 45/45/45 65/65/65
f 45/45/45 66/66/66 65/65/65
f 45/45/45 46/46/46 66/66/66
f 46/46/46 18/18/18 66/66/66
f 46/46/46 4/4/4 18/18/18
f 105/105/105 19/19/19 104/104/104
f 106/106/106 67/67/67 105/105/105
f 67/67/67 19/19/19 105/105/105
f 67/67/67 20/20/20 19/19/19
f 107/107/107 68/68/68 106/106/106
f 68/68/68 67/67/67 106/106/106
f 68/68/68 69/69/69 67/67/67
f 69/69/69 20/20/20 67/67/67
f 69/69/69 21/21/21 20/20/20
f 108/108/108 70/70/70 107/107/107
f 70/70/70 68/68/68 107/107/107
f 70/70/70 71/71/71 68/68/68
f 71/71/71 69/69/69 68/68/68
f 71/71/71 72/72/72 69/69/69
f 72/72/72 21/21/21 69/69/69
f 72/72/72 22/22/22 21/21/21
f 109/109/109 47/47/47 108/108/108
f 47/47/47 70/70/70 108/108/108
f 47/47/47 48/48/48 70/70/70
f 48/48/48 71/71/71 70/70/70
f 48/48/48 49/49/49 71/71/71
f 49/49/49 72/72/72 71/71/71
f 49/49/49 50/50/50 72/72/72
f 50/50/50 22/22/22 72/72/72
f 50/50/50 5/5/5 22/22/22
f 19/19/19 7/7/7 110/110/110
f 20/20/20 73/73/73 19/19/19
f 73/73/73 7/7/7 19/19/19
f 73/73/73 8/8/8 7/7/7
f 21/21/21 74/74/74 20/20/20
f 74/74/74 73/73/73 20/20/20
f 74/74/74 75/75/75 73/73/73
f 75/75/75 8/8/8 73/73/73
f 75/75/75 9/9/9 8/8/8
f 22/22/22 76/76/76 21/21/21
f 76/76/76 74/74/74 21/21/21
f 76/76/76 77/77/77 74/74/74
f 77/77/77 75/75/75 74/74/74
f 77/77/77 78/78/78 75/75/75
f 78/78/78 9/9/9 75/75/75
f 78/78/78 10/10/10 9/9/9
f 5/5/5 51/51/51 22/22/22
f 51/51/51 76/76/76 22/22/22
f 51/51/51 52/52/52 76/76/76
f 52/52/52 77/77/77 76/76/76
f 52/52/52 53/53/53 77/77/77
f 53/53/53 78/78/78 77/77/77
f 53/53/53 54/54/54 78/78/78
f 54/54/54 10/10/10 78/78/78
f 54/54/54 2/2/2 10/10/10
f 27/27/27 23/23/23 6/6/6
f 28/28/28 79/79/79 27/27/27
f 79/79/79 23/23/23 27/27/27
f 79/79/79 24/24/24 23/23/23
f 29/29/29 80/80/80 28/28/28
f 80/80/80 79/79/79 28/28/28
f 80/80/80 81/81/81 79/79/79
f 81/81/81 24/24/24 79/79/79
f 81/81/81 25/25/25 24/24/24
f 30/30/30 82/82/82 29/29/29
f 82/82/82 80/80/80 29/29/29
f 82/82/82 83/83/83 80/80/80
f 83/83/83 81/81/81 80/80/80
f 83/83/83 84/84/84 81/81/81
f 84/84/84 25/25/25 81/81/81
f 84/84/84 26/26/26 25/25/25
f 3/3/3 42/42/42 30/30/30
f 42/42/42 82/82/82 30/30/30
f 42/42/42 41/41/41 82/82/82
f 41/41/41 83/83/83 82/82/82
f 41/41/41 40/40/40 83/83/83
f 40/40/40 84/84/84 83/83/83
f 40/40/40 39/39/39 84/84/84
f 39/39/39 26/26/26 84/84/84
f 39/39/39 2/2/2 26/26/26
f 31/31/31 27/27/27 111/111/111
f 32/32/32 85/85/85 31/31/31
f 85/85/85 27/27/27 31/31/31
f 85/85/85 28/28/28 27/27/27
f 33/33/33 86/86/86 32/32/32
f 86/86/86 85/85/85 32/32/32
f 86/86/86 87/87/87 85/85/85
f 87/87/87 28/28/28 85/85/85
f 87/87/87 29/29/29 28/28/28
f 34/34/34 88/88/88 33/33/33
f 88/88/88 86/86/86 33/33/33
f 88/88/88 89/89/89 86/86/86
f 89/89/89 87/87/87 86/86/86
f 89/89/89 90/90/90 87/87/87
f 90/90/90 29/29/29 87/87/87
f 90/90/90 30/30/30 29/29/29
f 4/4/4 46/46/46 34/34/34
f 46/46/46 88/88/88 34/34/34
f 46/46/46 45/45/45 88/88/88
f 45/45/45 89/89/89 88/88/88
f 45/45/45 44/44/44 89/89/89
f 44/44/44 90/90/90 89/89/89
f 44/44/44 43/43/43 90/90/90
f 43/43/43 30/30/30 90/90/90
f 43/43/43 3/3/3 30/30/30
f 35/35/35 113/113/113 112/112/112
f 36/36/36 91/91/91 35/35/35
f 91/91/91 113/113/113 35/35/35
f 91/91/91 114/114/114 113/113/113
f 37/37/37 92/92/92 36/36/36
f 92/92/92 91/91/91 36/36/36
f 92/92/92 93/93/93 91/91/91
f 93/93/93 114/114/114 91/91/91
f 93/93/93 115/115/115 114/114/114
f 38/38/38 94/94/94 37/37/37
f 94/94/94 92/92/92 37/37/37
f 94/94/94 95/95/95 92/92/92
f 95/95/95 93/93/93 92/92/92
f 95/95/95 96/96/96 93/93/93
f 96/96/96 115/115/115 93/93/93
f 96/96/96 116/116/116 115/115/115
f 5/5/5 50/50/50 38/38/38
f 50/50/50 94/94/94 38/38/38
f 50/50/50 49/49/49 94/94/94
f 49/49/49 95/95/95 94/94/94
f 49/49/49 48/48/48 95/95/95
f 48/48/48 96/96/96 95/95/95
f 48/48/48 47/47/47 96/96/96
f 47/47/47 116/116/116 96/96/96
f 47/47/47 109/109/109 116/116/116
f 23/23/23 35/35/35 117/117/117
f 24/24/24 97/97/97 23/23/23
f 97/97/97 35/35/35 23/23/23
f 97/97/97 36/36/36 35/35/35
f 25/25/25 98/98/98 24/24/24
f 98/98/98 97/97/97 24/24/24
f 98/98/98 99/99/99 97/97/97
f 99/99/99 36/36/36 97/97/97
f 99/99/99 37/37/37 36/36/36
f 26/26/26 100/100/100 25/25/25
f 100/100/100 98/98/98 25/25/25
f 100/100/100 101/101/101 98/98/98
f 101/101/101 99/99/99 98/98/98
f 101/101/101 102/102/102 99/99/99
f 102/102/102 37/37/37 99/99/99
f 102/102/102 38/38/38 37/37/37
f 2/2/2 54/54/54 26/26/26
f 54/54/54 100/100/100 26/26/26
f 54/54/54 53/53/53 100/100/100
f 53/53/53 101/101/101 100/100/100
f 53/53/53 52/52/52 101/101/101
f 52/52/52 102/102/102 101/101/101
f 52/52/52 51/51/51 102/102/102
f 51/51/51 38/38/38 102/102/102
f 51/51/51 5/5/5 38/38/38
