g FX_Mesh_Torus_Trail2
v -6.517954E-08 1.491134 0
v -6.247812E-08 1.429333 0.2907524
v -5.484095E-08 1.254615 0.5312311
v -4.358859E-08 0.9971905 0.6798551
v -3.066663E-08 0.7015708 0.710926
v -3.066664E-08 0.701571 -0.710926
v -4.358859E-08 0.9971907 -0.679855
v -5.484096E-08 1.254615 -0.531231
v -6.247812E-08 1.429333 -0.2907523
v 0.4607858 1.418153 0
v 0.4416881 1.359376 0.2907524
v 0.3876972 1.19321 0.5312311
v 0.3081488 0.9483845 0.6798551
v 0.2167973 0.6672335 0.710926
v 0.2167974 0.6672336 -0.710926
v 0.3081488 0.9483846 -0.679855
v 0.3876973 1.19321 -0.531231
v 0.4416882 1.359376 -0.2907523
v 0.8764668 1.206353 0
v 0.8401408 1.156355 0.2907524
v 0.7374441 1.015005 0.5312311
v 0.5861339 0.8067441 0.6798551
v 0.412373 0.5675827 0.710926
v 0.4123731 0.5675829 -0.710926
v 0.586134 0.8067442 -0.679855
v 0.7374442 1.015005 -0.531231
v 0.8401409 1.156355 -0.2907523
v 1.206353 0.8764668 0
v 1.156355 0.8401408 0.2907524
v 1.015005 0.7374441 0.5312311
v 0.8067441 0.5861339 0.6798551
v 0.5675827 0.412373 0.710926
v 0.5675829 0.4123731 -0.710926
v 0.8067442 0.586134 -0.679855
v 1.015005 0.7374442 -0.531231
v 1.156355 0.8401409 -0.2907523
v 1.418153 0.4607858 0
v 1.359376 0.4416882 0.2907524
v 1.19321 0.3876973 0.5312311
v 0.9483845 0.3081488 0.6798551
v 0.6672335 0.2167973 0.710926
v 0.6672336 0.2167974 -0.710926
v 0.9483846 0.3081489 -0.679855
v 1.19321 0.3876974 -0.531231
v 1.359376 0.4416882 -0.2907523
v 1.491134 0 0
v 1.429333 0 0.2907524
v 1.254615 0 0.5312311
v 0.9971905 0 0.6798551
v 0.7015708 0 0.710926
v 0.701571 0 -0.710926
v 0.9971907 0 -0.679855
v 1.254615 0 -0.531231
v 1.429333 0 -0.2907523
v 1.418153 -0.4607858 0
v 1.359376 -0.4416882 0.2907524
v 1.19321 -0.3876973 0.5312311
v 0.9483845 -0.3081488 0.6798551
v 0.6672335 -0.2167973 0.710926
v 0.6672336 -0.2167974 -0.710926
v 0.9483846 -0.3081489 -0.679855
v 1.19321 -0.3876974 -0.531231
v 1.359376 -0.4416882 -0.2907523
v 1.206353 -0.8764668 0
v 1.156355 -0.8401408 0.2907524
v 1.015005 -0.7374441 0.5312311
v 0.8067441 -0.5861339 0.6798551
v 0.5675827 -0.412373 0.710926
v 0.5675829 -0.4123731 -0.710926
v 0.8067442 -0.586134 -0.679855
v 1.015005 -0.7374442 -0.531231
v 1.156355 -0.8401409 -0.2907523
v 0.8764668 -1.206353 0
v 0.8401408 -1.156355 0.2907524
v 0.7374441 -1.015005 0.5312311
v 0.5861339 -0.8067441 0.6798551
v 0.412373 -0.5675827 0.710926
v 0.4123731 -0.5675829 -0.710926
v 0.586134 -0.8067442 -0.679855
v 0.7374442 -1.015005 -0.531231
v 0.8401409 -1.156355 -0.2907523
v 0.4607858 -1.418153 0
v 0.4416881 -1.359376 0.2907524
v 0.3876972 -1.19321 0.5312311
v 0.3081488 -0.9483845 0.6798551
v 0.2167973 -0.6672335 0.710926
v 0.2167974 -0.6672336 -0.710926
v 0.3081488 -0.9483846 -0.679855
v 0.3876973 -1.19321 -0.531231
v 0.4416882 -1.359376 -0.2907523
v -6.517954E-08 -1.491134 0
v -6.247812E-08 -1.429333 0.2907524
v -5.484095E-08 -1.254615 0.5312311
v -4.358859E-08 -0.9971905 0.6798551
v -3.066663E-08 -0.7015708 0.710926
v -3.066664E-08 -0.701571 -0.710926
v -4.358859E-08 -0.9971907 -0.679855
v -5.484096E-08 -1.254615 -0.531231
v -6.247812E-08 -1.429333 -0.2907523
v -0.4607859 -1.418153 0
v -0.4416882 -1.359376 0.2907524
v -0.3876973 -1.19321 0.5312311
v -0.3081489 -0.9483845 0.6798551
v -0.2167974 -0.6672335 0.710926
v -0.2167974 -0.6672336 -0.710926
v -0.3081489 -0.9483846 -0.679855
v -0.3876974 -1.19321 -0.531231
v -0.4416882 -1.359376 -0.2907523
v -0.8764666 -1.206353 0
v -0.8401406 -1.156355 0.2907524
v -0.7374439 -1.015005 0.5312311
v -0.5861338 -0.8067441 0.6798551
v -0.4123729 -0.5675827 0.710926
v -0.412373 -0.5675829 -0.710926
v -0.5861339 -0.8067442 -0.679855
v -0.7374441 -1.015005 -0.531231
v -0.8401406 -1.156355 -0.2907523
v -1.206353 -0.8764666 0
v -1.156355 -0.8401406 0.2907524
v -1.015005 -0.7374439 0.5312311
v -0.8067442 -0.5861338 0.6798551
v -0.5675828 -0.4123729 0.710926
v -0.5675829 -0.412373 -0.710926
v -0.8067442 -0.5861339 -0.679855
v -1.015005 -0.7374441 -0.531231
v -1.156355 -0.8401406 -0.2907523
v -1.418153 -0.4607855 0
v -1.359376 -0.4416879 0.2907524
v -1.19321 -0.387697 0.5312311
v -0.9483846 -0.3081486 0.6798551
v -0.6672336 -0.2167972 0.710926
v -0.6672337 -0.2167972 -0.710926
v -0.9483848 -0.3081487 -0.679855
v -1.19321 -0.3876971 -0.531231
v -1.359377 -0.4416879 -0.2907523
v 0.4607858 1.418153 0
v -6.517954E-08 1.491134 0
v 0.8764668 1.206353 0
v 1.206353 0.8764668 0
v 1.418153 0.4607858 0
v 1.491134 0 0
v 1.418153 -0.4607858 0
v 1.206353 -0.8764668 0
v 0.8764668 -1.206353 0
v 0.4607858 -1.418153 0
v -6.517954E-08 -1.491134 0
v -0.4607859 -1.418153 0
v -0.8764666 -1.206353 0
v -1.206353 -0.8764666 0
v -1.418153 -0.4607855 0
vt 0.9956364 0.001449293
vt 0.9956364 0.075769
vt 0.9956364 0.2545706
vt 0.9956364 0.5204411
vt 0.9956364 0.9952757
vt 0.9956364 0.9952757
vt 0.9956364 0.5204411
vt 0.9956364 0.2545706
vt 0.9956364 0.075769
vt 0.9248382 0.001449293
vt 0.9248382 0.075769
vt 0.9248382 0.2545706
vt 0.9248382 0.5204411
vt 0.9248382 0.9952757
vt 0.9248382 0.9952757
vt 0.9248382 0.5204411
vt 0.9248382 0.2545706
vt 0.9248382 0.075769
vt 0.8540403 0.001449293
vt 0.8540403 0.075769
vt 0.8540403 0.2545706
vt 0.8540403 0.5204411
vt 0.8540403 0.9952757
vt 0.8540403 0.9952757
vt 0.8540403 0.5204411
vt 0.8540403 0.2545706
vt 0.8540403 0.075769
vt 0.7832423 0.001449293
vt 0.7832423 0.075769
vt 0.7832423 0.2545706
vt 0.7832423 0.5204411
vt 0.7832423 0.9952757
vt 0.7832423 0.9952757
vt 0.7832423 0.5204411
vt 0.7832423 0.2545706
vt 0.7832423 0.075769
vt 0.7124443 0.001449293
vt 0.7124443 0.075769
vt 0.7124443 0.2545706
vt 0.7124443 0.5204411
vt 0.7124443 0.9952757
vt 0.7124443 0.9952757
vt 0.7124443 0.5204411
vt 0.7124443 0.2545706
vt 0.7124443 0.075769
vt 0.6416462 0.001449293
vt 0.6416462 0.075769
vt 0.6416462 0.2545706
vt 0.6416462 0.5204411
vt 0.6416462 0.9952757
vt 0.6416462 0.9952757
vt 0.6416462 0.5204411
vt 0.6416462 0.2545706
vt 0.6416462 0.075769
vt 0.5708483 0.001449293
vt 0.5708483 0.075769
vt 0.5708483 0.2545706
vt 0.5708483 0.5204411
vt 0.5708483 0.9952757
vt 0.5708483 0.9952757
vt 0.5708483 0.5204411
vt 0.5708483 0.2545706
vt 0.5708483 0.075769
vt 0.5000502 0.001449293
vt 0.5000502 0.075769
vt 0.5000502 0.2545706
vt 0.5000502 0.5204411
vt 0.5000502 0.9952757
vt 0.5000502 0.9952757
vt 0.5000502 0.5204411
vt 0.5000502 0.2545706
vt 0.5000502 0.075769
vt 0.4292521 0.001449293
vt 0.4292521 0.075769
vt 0.4292521 0.2545706
vt 0.4292521 0.5204411
vt 0.4292521 0.9952757
vt 0.4292521 0.9952757
vt 0.4292521 0.5204411
vt 0.4292521 0.2545706
vt 0.4292521 0.075769
vt 0.3584541 0.001449293
vt 0.3584541 0.075769
vt 0.3584541 0.2545706
vt 0.3584541 0.5204411
vt 0.3584541 0.9952757
vt 0.3584541 0.9952757
vt 0.3584541 0.5204411
vt 0.3584541 0.2545706
vt 0.3584541 0.075769
vt 0.2876562 0.001449293
vt 0.2876562 0.075769
vt 0.2876562 0.2545706
vt 0.2876562 0.5204411
vt 0.2876562 0.9952757
vt 0.2876562 0.9952757
vt 0.2876562 0.5204411
vt 0.2876562 0.2545706
vt 0.2876562 0.075769
vt 0.2168581 0.001449293
vt 0.2168581 0.075769
vt 0.2168581 0.2545706
vt 0.2168581 0.5204411
vt 0.2168581 0.9952757
vt 0.2168581 0.9952757
vt 0.2168581 0.5204411
vt 0.2168581 0.2545706
vt 0.2168581 0.075769
vt 0.14606 0.001449293
vt 0.14606 0.075769
vt 0.14606 0.2545706
vt 0.14606 0.5204411
vt 0.14606 0.9952757
vt 0.14606 0.9952757
vt 0.14606 0.5204411
vt 0.14606 0.2545706
vt 0.14606 0.075769
vt 0.07526219 0.001449293
vt 0.07526219 0.075769
vt 0.07526219 0.2545706
vt 0.07526219 0.5204411
vt 0.07526219 0.9952757
vt 0.07526219 0.9952757
vt 0.07526219 0.5204411
vt 0.07526219 0.2545706
vt 0.07526219 0.075769
vt 0.004464085 0.001449293
vt 0.004464085 0.075769
vt 0.004464085 0.2545706
vt 0.004464085 0.5204411
vt 0.004464085 0.9952757
vt 0.004464085 0.9952757
vt 0.004464085 0.5204411
vt 0.004464085 0.2545706
vt 0.004464085 0.075769
vt 0.9248382 0.001449293
vt 0.9956364 0.001449293
vt 0.8540403 0.001449293
vt 0.7832423 0.001449293
vt 0.7124443 0.001449293
vt 0.6416462 0.001449293
vt 0.5708483 0.001449293
vt 0.5000502 0.001449293
vt 0.4292521 0.001449293
vt 0.3584541 0.001449293
vt 0.2876562 0.001449293
vt 0.2168581 0.001449293
vt 0.14606 0.001449293
vt 0.07526219 0.001449293
vt 0.004464085 0.001449293
vn 0.1564344 0.9876884 0
vn 0.1437074 0.907333 0.3950887
vn 0.1071263 0.6763688 0.7287312
vn 0.05181278 0.3271333 0.9435567
vn 0.0165534 0.1045141 0.9943856
vn 0.01655344 0.1045143 -0.9943856
vn 0.05181279 0.3271334 -0.9435566
vn 0.1071262 0.6763689 -0.7287312
vn 0.1437072 0.9073331 -0.3950884
vn 0.3090169 0.9510565 2.705816E-07
vn 0.2833221 0.8719758 0.3992327
vn 0.2102192 0.6469882 0.7329491
vn 0.1012257 0.3115407 0.9448258
vn 0.03230105 0.09941246 0.9945219
vn 0.03230111 0.09941261 -0.9945219
vn 0.1012257 0.3115408 -0.9448258
vn 0.2102191 0.6469882 -0.732949
vn 0.2833221 0.871976 -0.3992324
vn 0.5877852 0.809017 3.106678E-07
vn 0.5389107 0.7417469 0.3992327
vn 0.3998606 0.550361 0.732949
vn 0.1925428 0.2650124 0.9448258
vn 0.06144027 0.08456529 0.9945219
vn 0.06144038 0.08456544 -0.9945219
vn 0.1925428 0.2650124 -0.9448258
vn 0.3998606 0.550361 -0.732949
vn 0.5389107 0.741747 -0.3992324
vn 0.809017 0.5877852 2.906247E-07
vn 0.741747 0.5389107 0.3992327
vn 0.550361 0.3998607 0.732949
vn 0.2650124 0.1925428 0.9448258
vn 0.08456529 0.06144027 0.9945219
vn 0.08456544 0.06144038 -0.9945219
vn 0.2650124 0.1925428 -0.9448258
vn 0.550361 0.3998606 -0.732949
vn 0.741747 0.5389107 -0.3992324
vn 0.9510565 0.3090169 0
vn 0.8719759 0.2833221 0.3992326
vn 0.6469882 0.2102191 0.732949
vn 0.3115407 0.1012257 0.9448258
vn 0.09941245 0.03230106 0.9945219
vn 0.09941261 0.03230111 -0.9945219
vn 0.3115407 0.1012257 -0.9448258
vn 0.6469882 0.2102192 -0.732949
vn 0.871976 0.2833221 -0.3992324
vn 1 0 0
vn 0.9168497 0 0.3992326
vn 0.6802835 0 0.732949
vn 0.3275733 0 0.9448258
vn 0.1045284 0 0.9945219
vn 0.1045286 0 -0.9945219
vn 0.3275734 0 -0.9448258
vn 0.6802837 0 -0.732949
vn 0.9168498 0 -0.3992323
vn 0.9510565 -0.3090169 0
vn 0.8719758 -0.2833221 0.3992326
vn 0.6469881 -0.2102192 0.732949
vn 0.3115407 -0.1012257 0.9448258
vn 0.09941245 -0.03230106 0.9945219
vn 0.09941262 -0.03230112 -0.9945219
vn 0.3115408 -0.1012257 -0.9448258
vn 0.6469882 -0.2102192 -0.732949
vn 0.871976 -0.2833221 -0.3992323
vn 0.8090169 -0.5877853 2.956355E-07
vn 0.7417469 -0.5389107 0.3992327
vn 0.550361 -0.3998607 0.732949
vn 0.2650124 -0.1925428 0.9448258
vn 0.08456528 -0.06144027 0.9945219
vn 0.08456543 -0.06144037 -0.9945219
vn 0.2650124 -0.1925428 -0.9448258
vn 0.550361 -0.3998606 -0.732949
vn 0.741747 -0.5389107 -0.3992324
vn 0.5877852 -0.809017 3.106678E-07
vn 0.5389107 -0.741747 0.3992326
vn 0.3998606 -0.550361 0.732949
vn 0.1925428 -0.2650124 0.9448258
vn 0.06144027 -0.08456529 0.9945219
vn 0.06144037 -0.08456544 -0.9945219
vn 0.1925428 -0.2650125 -0.9448258
vn 0.3998606 -0.550361 -0.7329491
vn 0.5389107 -0.741747 -0.3992324
vn 0.3090169 -0.9510565 2.705816E-07
vn 0.283322 -0.8719758 0.3992326
vn 0.2102191 -0.6469882 0.732949
vn 0.1012257 -0.3115407 0.9448258
vn 0.03230105 -0.09941246 0.9945219
vn 0.03230111 -0.09941261 -0.9945219
vn 0.1012257 -0.3115407 -0.9448258
vn 0.2102191 -0.6469882 -0.732949
vn 0.2833221 -0.871976 -0.3992323
vn 0 -1 0
vn 0 -0.9168497 0.3992327
vn 0 -0.6802835 0.732949
vn 0 -0.3275733 0.9448258
vn 0 -0.1045284 0.9945219
vn 0 -0.1045286 -0.9945219
vn 0 -0.3275734 -0.9448258
vn 0 -0.6802836 -0.732949
vn 0 -0.9168498 -0.3992324
vn -0.3090171 -0.9510565 0
vn -0.2833222 -0.8719758 0.3992327
vn -0.2102192 -0.6469881 0.732949
vn -0.1012257 -0.3115408 0.9448258
vn -0.03230106 -0.09941245 0.9945219
vn -0.03230112 -0.09941263 -0.9945219
vn -0.1012258 -0.3115408 -0.9448258
vn -0.2102192 -0.6469881 -0.732949
vn -0.2833222 -0.8719759 -0.3992324
vn -0.5877854 -0.809017 0
vn -0.5389107 -0.741747 0.3992326
vn -0.3998606 -0.550361 0.732949
vn -0.1925428 -0.2650124 0.9448258
vn -0.06144027 -0.08456528 0.9945219
vn -0.06144038 -0.08456542 -0.9945219
vn -0.1925428 -0.2650124 -0.9448258
vn -0.3998606 -0.550361 -0.732949
vn -0.5389107 -0.741747 -0.3992323
vn -0.809017 -0.5877852 0
vn -0.741747 -0.5389107 0.3992326
vn -0.550361 -0.3998607 0.732949
vn -0.2650125 -0.1925428 0.9448258
vn -0.08456528 -0.06144027 0.9945219
vn -0.08456543 -0.06144039 -0.9945219
vn -0.2650124 -0.1925428 -0.9448258
vn -0.550361 -0.3998607 -0.732949
vn -0.7417471 -0.5389107 -0.3992322
vn -0.8910066 -0.4539904 0
vn -0.818517 -0.417055 0.3950886
vn -0.6101611 -0.3108924 0.7287313
vn -0.2951114 -0.1503666 0.9435566
vn -0.09428355 -0.04803985 0.9943856
vn -0.09428371 -0.04803994 -0.9943856
vn -0.2951113 -0.1503667 -0.9435566
vn -0.6101612 -0.3108926 -0.7287311
vn -0.8185171 -0.4170552 -0.3950883
vn 0.3090169 0.9510565 2.705816E-07
vn 0.1564344 0.9876884 0
vn 0.5877852 0.809017 3.106678E-07
vn 0.809017 0.5877852 2.906247E-07
vn 0.9510565 0.3090169 0
vn 1 0 0
vn 0.9510565 -0.3090169 0
vn 0.8090169 -0.5877853 2.956355E-07
vn 0.5877852 -0.809017 3.106678E-07
vn 0.3090169 -0.9510565 2.705816E-07
vn 0 -1 0
vn -0.3090171 -0.9510565 0
vn -0.5877854 -0.809017 0
vn -0.809017 -0.5877852 0
vn -0.8910066 -0.4539904 0
g FX_Mesh_Torus_Trail2_0
f 11/11/11 10/10/10 1/1/1
f 2/2/2 11/11/11 1/1/1
f 12/12/12 11/11/11 2/2/2
f 3/3/3 12/12/12 2/2/2
f 13/13/13 12/12/12 3/3/3
f 4/4/4 13/13/13 3/3/3
f 14/14/14 13/13/13 4/4/4
f 5/5/5 14/14/14 4/4/4
f 16/16/16 15/15/15 6/6/6
f 7/7/7 16/16/16 6/6/6
f 17/17/17 16/16/16 7/7/7
f 8/8/8 17/17/17 7/7/7
f 18/18/18 17/17/17 8/8/8
f 9/9/9 18/18/18 8/8/8
f 136/136/136 18/18/18 9/9/9
f 137/137/137 136/136/136 9/9/9
f 20/20/20 19/19/19 10/10/10
f 11/11/11 20/20/20 10/10/10
f 21/21/21 20/20/20 11/11/11
f 12/12/12 21/21/21 11/11/11
f 22/22/22 21/21/21 12/12/12
f 13/13/13 22/22/22 12/12/12
f 23/23/23 22/22/22 13/13/13
f 14/14/14 23/23/23 13/13/13
f 25/25/25 24/24/24 15/15/15
f 16/16/16 25/25/25 15/15/15
f 26/26/26 25/25/25 16/16/16
f 17/17/17 26/26/26 16/16/16
f 27/27/27 26/26/26 17/17/17
f 18/18/18 27/27/27 17/17/17
f 138/138/138 27/27/27 18/18/18
f 136/136/136 138/138/138 18/18/18
f 29/29/29 28/28/28 19/19/19
f 20/20/20 29/29/29 19/19/19
f 30/30/30 29/29/29 20/20/20
f 21/21/21 30/30/30 20/20/20
f 31/31/31 30/30/30 21/21/21
f 22/22/22 31/31/31 21/21/21
f 32/32/32 31/31/31 22/22/22
f 23/23/23 32/32/32 22/22/22
f 34/34/34 33/33/33 24/24/24
f 25/25/25 34/34/34 24/24/24
f 35/35/35 34/34/34 25/25/25
f 26/26/26 35/35/35 25/25/25
f 36/36/36 35/35/35 26/26/26
f 27/27/27 36/36/36 26/26/26
f 139/139/139 36/36/36 27/27/27
f 138/138/138 139/139/139 27/27/27
f 38/38/38 37/37/37 28/28/28
f 29/29/29 38/38/38 28/28/28
f 39/39/39 38/38/38 29/29/29
f 30/30/30 39/39/39 29/29/29
f 40/40/40 39/39/39 30/30/30
f 31/31/31 40/40/40 30/30/30
f 41/41/41 40/40/40 31/31/31
f 32/32/32 41/41/41 31/31/31
f 43/43/43 42/42/42 33/33/33
f 34/34/34 43/43/43 33/33/33
f 44/44/44 43/43/43 34/34/34
f 35/35/35 44/44/44 34/34/34
f 45/45/45 44/44/44 35/35/35
f 36/36/36 45/45/45 35/35/35
f 140/140/140 45/45/45 36/36/36
f 139/139/139 140/140/140 36/36/36
f 47/47/47 46/46/46 37/37/37
f 38/38/38 47/47/47 37/37/37
f 48/48/48 47/47/47 38/38/38
f 39/39/39 48/48/48 38/38/38
f 49/49/49 48/48/48 39/39/39
f 40/40/40 49/49/49 39/39/39
f 50/50/50 49/49/49 40/40/40
f 41/41/41 50/50/50 40/40/40
f 52/52/52 51/51/51 42/42/42
f 43/43/43 52/52/52 42/42/42
f 53/53/53 52/52/52 43/43/43
f 44/44/44 53/53/53 43/43/43
f 54/54/54 53/53/53 44/44/44
f 45/45/45 54/54/54 44/44/44
f 141/141/141 54/54/54 45/45/45
f 140/140/140 141/141/141 45/45/45
f 56/56/56 55/55/55 46/46/46
f 47/47/47 56/56/56 46/46/46
f 57/57/57 56/56/56 47/47/47
f 48/48/48 57/57/57 47/47/47
f 58/58/58 57/57/57 48/48/48
f 49/49/49 58/58/58 48/48/48
f 59/59/59 58/58/58 49/49/49
f 50/50/50 59/59/59 49/49/49
f 61/61/61 60/60/60 51/51/51
f 52/52/52 61/61/61 51/51/51
f 62/62/62 61/61/61 52/52/52
f 53/53/53 62/62/62 52/52/52
f 63/63/63 62/62/62 53/53/53
f 54/54/54 63/63/63 53/53/53
f 142/142/142 63/63/63 54/54/54
f 141/141/141 142/142/142 54/54/54
f 65/65/65 64/64/64 55/55/55
f 56/56/56 65/65/65 55/55/55
f 66/66/66 65/65/65 56/56/56
f 57/57/57 66/66/66 56/56/56
f 67/67/67 66/66/66 57/57/57
f 58/58/58 67/67/67 57/57/57
f 68/68/68 67/67/67 58/58/58
f 59/59/59 68/68/68 58/58/58
f 70/70/70 69/69/69 60/60/60
f 61/61/61 70/70/70 60/60/60
f 71/71/71 70/70/70 61/61/61
f 62/62/62 71/71/71 61/61/61
f 72/72/72 71/71/71 62/62/62
f 63/63/63 72/72/72 62/62/62
f 143/143/143 72/72/72 63/63/63
f 142/142/142 143/143/143 63/63/63
f 74/74/74 73/73/73 64/64/64
f 65/65/65 74/74/74 64/64/64
f 75/75/75 74/74/74 65/65/65
f 66/66/66 75/75/75 65/65/65
f 76/76/76 75/75/75 66/66/66
f 67/67/67 76/76/76 66/66/66
f 77/77/77 76/76/76 67/67/67
f 68/68/68 77/77/77 67/67/67
f 79/79/79 78/78/78 69/69/69
f 70/70/70 79/79/79 69/69/69
f 80/80/80 79/79/79 70/70/70
f 71/71/71 80/80/80 70/70/70
f 81/81/81 80/80/80 71/71/71
f 72/72/72 81/81/81 71/71/71
f 144/144/144 81/81/81 72/72/72
f 143/143/143 144/144/144 72/72/72
f 83/83/83 82/82/82 73/73/73
f 74/74/74 83/83/83 73/73/73
f 84/84/84 83/83/83 74/74/74
f 75/75/75 84/84/84 74/74/74
f 85/85/85 84/84/84 75/75/75
f 76/76/76 85/85/85 75/75/75
f 86/86/86 85/85/85 76/76/76
f 77/77/77 86/86/86 76/76/76
f 88/88/88 87/87/87 78/78/78
f 79/79/79 88/88/88 78/78/78
f 89/89/89 88/88/88 79/79/79
f 80/80/80 89/89/89 79/79/79
f 90/90/90 89/89/89 80/80/80
f 81/81/81 90/90/90 80/80/80
f 145/145/145 90/90/90 81/81/81
f 144/144/144 145/145/145 81/81/81
f 92/92/92 91/91/91 82/82/82
f 83/83/83 92/92/92 82/82/82
f 93/93/93 92/92/92 83/83/83
f 84/84/84 93/93/93 83/83/83
f 94/94/94 93/93/93 84/84/84
f 85/85/85 94/94/94 84/84/84
f 95/95/95 94/94/94 85/85/85
f 86/86/86 95/95/95 85/85/85
f 97/97/97 96/96/96 87/87/87
f 88/88/88 97/97/97 87/87/87
f 98/98/98 97/97/97 88/88/88
f 89/89/89 98/98/98 88/88/88
f 99/99/99 98/98/98 89/89/89
f 90/90/90 99/99/99 89/89/89
f 146/146/146 99/99/99 90/90/90
f 145/145/145 146/146/146 90/90/90
f 101/101/101 100/100/100 91/91/91
f 92/92/92 101/101/101 91/91/91
f 102/102/102 101/101/101 92/92/92
f 93/93/93 102/102/102 92/92/92
f 103/103/103 102/102/102 93/93/93
f 94/94/94 103/103/103 93/93/93
f 104/104/104 103/103/103 94/94/94
f 95/95/95 104/104/104 94/94/94
f 106/106/106 105/105/105 96/96/96
f 97/97/97 106/106/106 96/96/96
f 107/107/107 106/106/106 97/97/97
f 98/98/98 107/107/107 97/97/97
f 108/108/108 107/107/107 98/98/98
f 99/99/99 108/108/108 98/98/98
f 147/147/147 108/108/108 99/99/99
f 146/146/146 147/147/147 99/99/99
f 110/110/110 109/109/109 100/100/100
f 101/101/101 110/110/110 100/100/100
f 111/111/111 110/110/110 101/101/101
f 102/102/102 111/111/111 101/101/101
f 112/112/112 111/111/111 102/102/102
f 103/103/103 112/112/112 102/102/102
f 113/113/113 112/112/112 103/103/103
f 104/104/104 113/113/113 103/103/103
f 115/115/115 114/114/114 105/105/105
f 106/106/106 115/115/115 105/105/105
f 116/116/116 115/115/115 106/106/106
f 107/107/107 116/116/116 106/106/106
f 117/117/117 116/116/116 107/107/107
f 108/108/108 117/117/117 107/107/107
f 148/148/148 117/117/117 108/108/108
f 147/147/147 148/148/148 108/108/108
f 119/119/119 118/118/118 109/109/109
f 110/110/110 119/119/119 109/109/109
f 120/120/120 119/119/119 110/110/110
f 111/111/111 120/120/120 110/110/110
f 121/121/121 120/120/120 111/111/111
f 112/112/112 121/121/121 111/111/111
f 122/122/122 121/121/121 112/112/112
f 113/113/113 122/122/122 112/112/112
f 124/124/124 123/123/123 114/114/114
f 115/115/115 124/124/124 114/114/114
f 125/125/125 124/124/124 115/115/115
f 116/116/116 125/125/125 115/115/115
f 126/126/126 125/125/125 116/116/116
f 117/117/117 126/126/126 116/116/116
f 149/149/149 126/126/126 117/117/117
f 148/148/148 149/149/149 117/117/117
f 128/128/128 127/127/127 118/118/118
f 119/119/119 128/128/128 118/118/118
f 129/129/129 128/128/128 119/119/119
f 120/120/120 129/129/129 119/119/119
f 130/130/130 129/129/129 120/120/120
f 121/121/121 130/130/130 120/120/120
f 131/131/131 130/130/130 121/121/121
f 122/122/122 131/131/131 121/121/121
f 133/133/133 132/132/132 123/123/123
f 124/124/124 133/133/133 123/123/123
f 134/134/134 133/133/133 124/124/124
f 125/125/125 134/134/134 124/124/124
f 135/135/135 134/134/134 125/125/125
f 126/126/126 135/135/135 125/125/125
f 150/150/150 135/135/135 126/126/126
f 149/149/149 150/150/150 126/126/126
