g FX_Mesh_RayFire_Cylinder_Holl_v_002
v -0.1886309 0.1170733 -0.09609157
v -0.02343682 0.1407474 -0.2644724
v -0.1157145 -0.01126658 -0.2435283
v -0.02071801 -0.2168344 -0.1478904
v 0.350263 0.093254 -0.1346421
v -0.1733476 0.02377423 0.3709721
v 0.007963113 0.01319407 0.3709721
v -0.1173903 -0.08980272 0.3709721
v -0.02343682 0.1407474 -0.2644724
v -0.1157145 -0.01126658 -0.2435283
v -0.1886309 0.1170733 -0.09609157
v -0.02343682 0.1407474 -0.2644724
v 0.350263 0.093254 -0.1346421
v 0.007963113 0.01319407 0.3709721
v -0.1733476 0.02377423 0.3709721
v -0.1886309 0.1170733 -0.09609157
v -0.02071801 -0.2168344 -0.1478904
v -0.1157145 -0.01126658 -0.2435283
v -0.1733476 0.02377423 0.3709721
v -0.1173903 -0.08980272 0.3709721
v 0.007963113 0.01319407 0.3709721
v -0.02071801 -0.2168344 -0.1478904
v -0.1173903 -0.08980272 0.3709721
v 0.350263 0.093254 -0.1346421
vt 1.140707 0.8188518
vt 1.06751 0.6471334
vt 1.206874 0.6684926
vt 1.102624 0.8852217
vt 0.8202651 1.140813
vt 0.5087119 0.3734509
vt 0.5103288 0.5164489
vt 0.4274816 1
vt 1.131554 1.17996
vt 1.196198 1.054662
vt 0.1336801 0.361397
vt 0 0.491684
vt 0.1075428 0.7864175
vt 0.4664569 1
vt 0.4556459 1
vt 0 0.1162934
vt 0.2942816 0.07543604
vt 0.1160247 0
vt 0.0712184 0.4846981
vt 0.1709139 0.4846981
vt 0 0.1241794
vt 0.4465699 0.09576691
vt 0.02998421 0
vt 0.3466051 0.4632731
vn -0.6957415 0.3347809 -0.6355042
vn -0.6957415 0.3347809 -0.6355042
vn -0.6957415 0.3347809 -0.6355042
vn 0.2797585 -0.2956702 -0.913408
vn 0.2797586 -0.2956703 -0.913408
vn 0.05715057 0.9793813 0.193768
vn 0.05715057 0.9793813 0.193768
vn 0 0 1
vn 0.2797585 -0.2956703 -0.913408
vn 0.2797585 -0.2956702 -0.913408
vn 0.05715057 0.9793813 0.193768
vn 0.05715058 0.9793814 0.1937679
vn 0.05715054 0.9793814 0.1937679
vn 0 0 1
vn 0 0 1
vn -0.8954844 -0.4411881 -0.05882787
vn -0.8954844 -0.4411881 -0.05882787
vn -0.8954844 -0.441188 -0.05882787
vn -0.8954844 -0.4411881 -0.05882813
vn -0.8954844 -0.4411882 -0.05882808
vn 0.6068109 -0.7385263 0.2938699
vn 0.6068109 -0.7385263 0.2938699
vn 0.6068108 -0.7385263 0.2938699
vn 0.6068107 -0.7385265 0.29387
g FX_Mesh_RayFire_Cylinder_Holl_v_002_0
f 2/2/2 3/3/3 1/1/1
f 10/10/10 9/9/9 4/4/4
f 5/5/5 4/4/4 9/9/9
f 6/6/6 7/7/7 11/11/11
f 11/11/11 7/7/7 12/12/12
f 12/12/12 7/7/7 13/13/13
f 15/15/15 8/8/8 14/14/14
f 18/18/18 17/17/17 16/16/16
f 16/16/16 17/17/17 19/19/19
f 19/19/19 17/17/17 20/20/20
f 23/23/23 22/22/22 21/21/21
f 24/24/24 21/21/21 22/22/22
