g FX_Mesh_Cone2
v 1.401989 0 -0.7877811
v 1.33337 0.4332383 -0.7877811
v 1.134233 0.8240682 -0.7877811
v 0.8240682 1.134233 -0.7877811
v 0.4332383 1.33337 -0.7877811
v -6.128286E-08 1.401989 -0.7877811
v -0.4332383 1.33337 -0.7877811
v -0.8240681 1.134233 -0.7877811
v -1.134233 0.8240681 -0.7877811
v -1.33337 0.433238 -0.7877811
v -1.401989 -4.568259E-07 -0.7877811
v -1.33337 -0.4332389 -0.7877811
v -1.134232 -0.8240689 -0.7877811
v -0.8240674 -1.134233 -0.7877811
v -0.4332372 -1.333371 -0.7877811
v 1.353759E-06 -1.401989 -0.7877811
v 0.4332397 -1.33337 -0.7877811
v 0.8240696 -1.134232 -0.7877811
v 1.134234 -0.8240666 -0.7877811
v 1.333371 -0.4332363 -0.7877811
v 0.9358293 0 -0.2625937
v 0.8900267 0.2891872 -0.2625937
v 0.7571018 0.5500666 -0.2625937
v 0.5500666 0.7571018 -0.2625937
v 0.2891872 0.8900267 -0.2625937
v -4.09064E-08 0.9358293 -0.2625937
v -0.2891872 0.8900266 -0.2625937
v -0.5500666 0.7571018 -0.2625937
v -0.757102 0.5500666 -0.2625937
v -0.8900267 0.289187 -0.2625937
v -0.9358293 -3.049319E-07 -0.2625937
v -0.8900264 -0.2891876 -0.2625937
v -0.7571015 -0.5500671 -0.2625937
v -0.5500662 -0.7571023 -0.2625937
v -0.2891864 -0.8900269 -0.2625937
v 9.03636E-07 -0.9358293 -0.2625937
v 0.2891881 -0.8900263 -0.2625937
v 0.5500676 -0.7571012 -0.2625937
v 0.7571026 -0.5500656 -0.2625937
v 0.890027 -0.2891859 -0.2625937
v 0.4696703 0 0.2625937
v 0.446683 0.1451361 0.2625937
v 0.3799712 0.2760652 0.2625937
v 0.2760652 0.3799712 0.2625937
v 0.1451361 0.446683 0.2625937
v -2.052994E-08 0.4696703 0.2625937
v -0.1451361 0.446683 0.2625937
v -0.2760652 0.3799712 0.2625937
v -0.3799713 0.2760652 0.2625937
v -0.446683 0.145136 0.2625937
v -0.4696703 -1.53038E-07 0.2625937
v -0.4466829 -0.1451363 0.2625937
v -0.3799711 -0.2760655 0.2625937
v -0.276065 -0.3799714 0.2625937
v -0.1451357 -0.4466831 0.2625937
v 4.535132E-07 -0.4696703 0.2625937
v 0.1451366 -0.4466828 0.2625937
v 0.2760657 -0.3799709 0.2625937
v 0.3799716 -0.2760647 0.2625937
v 0.4466832 -0.1451354 0.2625937
v 0.003511161 0 0.7877811
v 0.003339313 0.001085008 0.7877811
v 0.002840589 0.002063808 0.7877811
v 0.002063808 0.002840589 0.7877811
v 0.001085008 0.003339313 0.7877811
v -1.534777E-10 0.003511161 0.7877811
v -0.001085008 0.003339313 0.7877811
v -0.002063808 0.002840589 0.7877811
v -0.002840589 0.002063808 0.7877811
v -0.003339313 0.001085008 0.7877811
v -0.003511161 -1.144081E-09 0.7877811
v -0.003339312 -0.00108501 0.7877811
v -0.002840588 -0.00206381 0.7877811
v -0.002063807 -0.00284059 0.7877811
v -0.001085006 -0.003339314 0.7877811
v 3.390374E-09 -0.003511161 0.7877811
v 0.001085012 -0.003339311 0.7877811
v 0.002063812 -0.002840586 0.7877811
v 0.002840592 -0.002063805 0.7877811
v 0.003339314 -0.001085003 0.7877811
v 0.4332383 1.33337 -0.7877811
v 0.2891872 0.8900267 -0.2625937
v 0.1451361 0.446683 0.2625937
v 0.001085008 0.003339313 0.7877811
vt 0.2003001 0.9995
vt 0.15035 0.9995
vt 0.1004 0.9995
vt 0.05045003 0.9995
vt 0.0005001426 0.9995
vt 0.94955 0.9995001
vt 0.8996001 0.9995001
vt 0.8496501 0.9995001
vt 0.7997 0.9995001
vt 0.7497501 0.9995001
vt 0.6998001 0.9995001
vt 0.64985 0.9995001
vt 0.5999001 0.9995001
vt 0.54995 0.9995001
vt 0.4999999 0.9995001
vt 0.4500499 0.9995001
vt 0.4000999 0.9995001
vt 0.3501499 0.9995001
vt 0.3001998 0.9995
vt 0.2502498 0.9995
vt 0.2003002 0.6665
vt 0.1503501 0.6665
vt 0.1004001 0.6665
vt 0.05045009 0.6665
vt 0.000500083 0.6665
vt 0.9495501 0.6665001
vt 0.8996001 0.6665001
vt 0.8496501 0.6665001
vt 0.7997001 0.6665001
vt 0.7497501 0.6665001
vt 0.6998001 0.6665001
vt 0.64985 0.6665001
vt 0.5999 0.6665001
vt 0.54995 0.6665001
vt 0.5 0.6665001
vt 0.4500499 0.6665001
vt 0.4000999 0.6665001
vt 0.3501499 0.6665001
vt 0.3001999 0.6665
vt 0.2502499 0.6665
vt 0.2003002 0.3335
vt 0.1503501 0.3335
vt 0.1004001 0.3335
vt 0.05045009 0.3335
vt 0.0005002022 0.3335
vt 0.9495502 0.3335001
vt 0.8996001 0.3335001
vt 0.8496501 0.3335001
vt 0.7997001 0.3335001
vt 0.7497501 0.3335001
vt 0.6998001 0.3335001
vt 0.6498501 0.3335001
vt 0.5999001 0.3335001
vt 0.5499501 0.3335001
vt 0.5 0.3335001
vt 0.4500499 0.3335001
vt 0.4000999 0.3335001
vt 0.3501499 0.3335001
vt 0.3001999 0.3335
vt 0.2502499 0.3335
vt 0.2003002 0.0004999884
vt 0.1503502 0.0004999862
vt 0.1004001 0.000499984
vt 0.05045015 0.0004999819
vt 0.0005001426 0.0004999797
vt 0.9495502 0.0005000808
vt 0.8996001 0.0005000786
vt 0.8496502 0.0005000764
vt 0.7997002 0.0005000742
vt 0.7497501 0.000500072
vt 0.6998001 0.0005000699
vt 0.6498501 0.0005000677
vt 0.5999001 0.0005000655
vt 0.5499501 0.0005000633
vt 0.5000001 0.0005000611
vt 0.45005 0.0005000589
vt 0.4001 0.0005000568
vt 0.35015 0.0005000546
vt 0.3001999 0.0004999927
vt 0.2502499 0.0004999906
vt 0.9995001 0.9995001
vt 0.9995001 0.6665001
vt 0.9995002 0.3335001
vt 0.9995002 0.000500083
vn 0.7478858 2.813315E-07 0.6638275
vn 0.7112817 0.2311094 0.6638275
vn 0.6050522 0.4395963 0.6638273
vn 0.4395963 0.6050522 0.6638273
vn 0.2311094 0.7112817 0.6638274
vn 0 0.7478858 0.6638275
vn -0.2311095 0.7112816 0.6638275
vn -0.4395962 0.6050523 0.6638274
vn -0.6050523 0.4395962 0.6638274
vn -0.7112817 0.2311092 0.6638275
vn -0.7478858 -3.375979E-07 0.6638275
vn -0.7112815 -0.2311097 0.6638274
vn -0.6050521 -0.4395964 0.6638275
vn -0.4395958 -0.6050526 0.6638275
vn -0.2311087 -0.7112818 0.6638275
vn 7.519227E-07 -0.7478858 0.6638275
vn 0.2311102 -0.7112814 0.6638274
vn 0.439597 -0.6050519 0.6638274
vn 0.6050529 -0.4395955 0.6638274
vn 0.7112819 -0.2311086 0.6638275
vn 0.7478859 2.818045E-07 0.6638274
vn 0.7112817 0.2311094 0.6638274
vn 0.6050523 0.4395963 0.6638274
vn 0.4395962 0.6050523 0.6638274
vn 0.2311094 0.7112817 0.6638274
vn 0 0.7478858 0.6638274
vn -0.2311095 0.7112817 0.6638275
vn -0.4395962 0.6050524 0.6638273
vn -0.6050523 0.4395962 0.6638274
vn -0.7112818 0.2311092 0.6638274
vn -0.7478859 -3.534497E-07 0.6638274
vn -0.7112817 -0.2311097 0.6638274
vn -0.6050521 -0.4395965 0.6638275
vn -0.4395958 -0.6050526 0.6638273
vn -0.2311087 -0.7112819 0.6638275
vn 7.546629E-07 -0.7478859 0.6638274
vn 0.2311101 -0.7112814 0.6638274
vn 0.439597 -0.6050518 0.6638273
vn 0.6050529 -0.4395954 0.6638274
vn 0.711282 -0.2311086 0.6638274
vn 0.7478858 3.056862E-07 0.6638274
vn 0.7112817 0.2311094 0.6638275
vn 0.6050523 0.4395962 0.6638275
vn 0.4395962 0.6050523 0.6638275
vn 0.2311094 0.7112817 0.6638275
vn 0 0.7478859 0.6638274
vn -0.2311095 0.7112817 0.6638275
vn -0.4395962 0.6050524 0.6638274
vn -0.6050523 0.4395962 0.6638274
vn -0.7112818 0.2311092 0.6638274
vn -0.7478859 -3.797196E-07 0.6638274
vn -0.7112817 -0.2311098 0.6638273
vn -0.6050522 -0.4395965 0.6638274
vn -0.4395958 -0.6050526 0.6638274
vn -0.2311088 -0.711282 0.6638274
vn 7.618274E-07 -0.7478858 0.6638274
vn 0.2311102 -0.7112814 0.6638274
vn 0.439597 -0.6050518 0.6638275
vn 0.6050529 -0.4395954 0.6638274
vn 0.711282 -0.2311086 0.6638274
vn 0.7478858 3.807713E-07 0.6638274
vn 0.7112817 0.2311094 0.6638275
vn 0.6050522 0.4395961 0.6638275
vn 0.4395961 0.6050522 0.6638275
vn 0.2311094 0.7112817 0.6638275
vn 0 0.7478858 0.6638274
vn -0.2311095 0.7112817 0.6638274
vn -0.4395962 0.6050524 0.6638274
vn -0.6050524 0.4395961 0.6638274
vn -0.7112817 0.2311093 0.6638275
vn -0.7478858 -3.942102E-07 0.6638275
vn -0.7112816 -0.2311098 0.6638274
vn -0.6050521 -0.4395964 0.6638274
vn -0.4395959 -0.6050525 0.6638275
vn -0.2311088 -0.7112818 0.6638275
vn 7.615424E-07 -0.7478858 0.6638275
vn 0.2311102 -0.7112813 0.6638274
vn 0.439597 -0.6050518 0.6638274
vn 0.6050529 -0.4395955 0.6638274
vn 0.711282 -0.2311087 0.6638274
vn 0.2311094 0.7112817 0.6638274
vn 0.2311094 0.7112817 0.6638274
vn 0.2311094 0.7112817 0.6638275
vn 0.2311094 0.7112817 0.6638275
g FX_Mesh_Cone2_0
f 22/22/22 21/21/21 1/1/1
f 2/2/2 22/22/22 1/1/1
f 23/23/23 22/22/22 2/2/2
f 3/3/3 23/23/23 2/2/2
f 24/24/24 23/23/23 3/3/3
f 4/4/4 24/24/24 3/3/3
f 25/25/25 24/24/24 4/4/4
f 5/5/5 25/25/25 4/4/4
f 26/26/26 82/82/82 81/81/81
f 6/6/6 26/26/26 81/81/81
f 27/27/27 26/26/26 6/6/6
f 7/7/7 27/27/27 6/6/6
f 28/28/28 27/27/27 7/7/7
f 8/8/8 28/28/28 7/7/7
f 29/29/29 28/28/28 8/8/8
f 9/9/9 29/29/29 8/8/8
f 30/30/30 29/29/29 9/9/9
f 10/10/10 30/30/30 9/9/9
f 31/31/31 30/30/30 10/10/10
f 11/11/11 31/31/31 10/10/10
f 32/32/32 31/31/31 11/11/11
f 12/12/12 32/32/32 11/11/11
f 33/33/33 32/32/32 12/12/12
f 13/13/13 33/33/33 12/12/12
f 34/34/34 33/33/33 13/13/13
f 14/14/14 34/34/34 13/13/13
f 35/35/35 34/34/34 14/14/14
f 15/15/15 35/35/35 14/14/14
f 36/36/36 35/35/35 15/15/15
f 16/16/16 36/36/36 15/15/15
f 37/37/37 36/36/36 16/16/16
f 17/17/17 37/37/37 16/16/16
f 38/38/38 37/37/37 17/17/17
f 18/18/18 38/38/38 17/17/17
f 39/39/39 38/38/38 18/18/18
f 19/19/19 39/39/39 18/18/18
f 40/40/40 39/39/39 19/19/19
f 20/20/20 40/40/40 19/19/19
f 21/21/21 40/40/40 20/20/20
f 1/1/1 21/21/21 20/20/20
f 42/42/42 41/41/41 21/21/21
f 22/22/22 42/42/42 21/21/21
f 43/43/43 42/42/42 22/22/22
f 23/23/23 43/43/43 22/22/22
f 44/44/44 43/43/43 23/23/23
f 24/24/24 44/44/44 23/23/23
f 45/45/45 44/44/44 24/24/24
f 25/25/25 45/45/45 24/24/24
f 46/46/46 83/83/83 82/82/82
f 26/26/26 46/46/46 82/82/82
f 47/47/47 46/46/46 26/26/26
f 27/27/27 47/47/47 26/26/26
f 48/48/48 47/47/47 27/27/27
f 28/28/28 48/48/48 27/27/27
f 49/49/49 48/48/48 28/28/28
f 29/29/29 49/49/49 28/28/28
f 50/50/50 49/49/49 29/29/29
f 30/30/30 50/50/50 29/29/29
f 51/51/51 50/50/50 30/30/30
f 31/31/31 51/51/51 30/30/30
f 52/52/52 51/51/51 31/31/31
f 32/32/32 52/52/52 31/31/31
f 53/53/53 52/52/52 32/32/32
f 33/33/33 53/53/53 32/32/32
f 54/54/54 53/53/53 33/33/33
f 34/34/34 54/54/54 33/33/33
f 55/55/55 54/54/54 34/34/34
f 35/35/35 55/55/55 34/34/34
f 56/56/56 55/55/55 35/35/35
f 36/36/36 56/56/56 35/35/35
f 57/57/57 56/56/56 36/36/36
f 37/37/37 57/57/57 36/36/36
f 58/58/58 57/57/57 37/37/37
f 38/38/38 58/58/58 37/37/37
f 59/59/59 58/58/58 38/38/38
f 39/39/39 59/59/59 38/38/38
f 60/60/60 59/59/59 39/39/39
f 40/40/40 60/60/60 39/39/39
f 41/41/41 60/60/60 40/40/40
f 21/21/21 41/41/41 40/40/40
f 62/62/62 61/61/61 41/41/41
f 42/42/42 62/62/62 41/41/41
f 63/63/63 62/62/62 42/42/42
f 43/43/43 63/63/63 42/42/42
f 64/64/64 63/63/63 43/43/43
f 44/44/44 64/64/64 43/43/43
f 65/65/65 64/64/64 44/44/44
f 45/45/45 65/65/65 44/44/44
f 66/66/66 84/84/84 83/83/83
f 46/46/46 66/66/66 83/83/83
f 67/67/67 66/66/66 46/46/46
f 47/47/47 67/67/67 46/46/46
f 68/68/68 67/67/67 47/47/47
f 48/48/48 68/68/68 47/47/47
f 69/69/69 68/68/68 48/48/48
f 49/49/49 69/69/69 48/48/48
f 70/70/70 69/69/69 49/49/49
f 50/50/50 70/70/70 49/49/49
f 71/71/71 70/70/70 50/50/50
f 51/51/51 71/71/71 50/50/50
f 72/72/72 71/71/71 51/51/51
f 52/52/52 72/72/72 51/51/51
f 73/73/73 72/72/72 52/52/52
f 53/53/53 73/73/73 52/52/52
f 74/74/74 73/73/73 53/53/53
f 54/54/54 74/74/74 53/53/53
f 75/75/75 74/74/74 54/54/54
f 55/55/55 75/75/75 54/54/54
f 76/76/76 75/75/75 55/55/55
f 56/56/56 76/76/76 55/55/55
f 77/77/77 76/76/76 56/56/56
f 57/57/57 77/77/77 56/56/56
f 78/78/78 77/77/77 57/57/57
f 58/58/58 78/78/78 57/57/57
f 79/79/79 78/78/78 58/58/58
f 59/59/59 79/79/79 58/58/58
f 80/80/80 79/79/79 59/59/59
f 60/60/60 80/80/80 59/59/59
f 61/61/61 80/80/80 60/60/60
f 41/41/41 61/61/61 60/60/60
