g FX_Mesh_Cylinder_Half
v 1.284167 0.4673986 -0.2774558
v 1.076881 0.8413518 -0.2774558
v 0.7641829 1.132948 -0.2774558
v 0.376681 1.313643 -0.2774558
v -0.04769309 1.36575 -0.2774558
v 0.04769414 -1.365749 -0.2774558
v 0.4673999 -1.284167 -0.2774558
v 0.8413531 -1.07688 -0.2774558
v 1.132949 -0.7641814 -0.2774558
v 1.313643 -0.3766793 -0.2774558
v 1.365749 0.04769504 -0.2774558
v 1.284167 0.4673985 -0.09248527
v 1.076881 0.8413517 -0.09248527
v 0.7641829 1.132948 -0.09248527
v 0.3766809 1.313643 -0.09248527
v -0.04769309 1.365749 -0.09248527
v 0.04769421 -1.365749 -0.09248527
v 0.4673997 -1.284166 -0.09248527
v 0.841353 -1.07688 -0.09248527
v 1.132949 -0.7641814 -0.09248527
v 1.313643 -0.3766792 -0.09248527
v 1.365749 0.047695 -0.09248527
v 1.284167 0.4673986 0.09248527
v 1.076881 0.8413518 0.09248527
v 0.7641829 1.132948 0.09248527
v 0.376681 1.313643 0.09248527
v -0.04769309 1.36575 0.09248527
v 0.04769414 -1.365749 0.09248527
v 0.4673999 -1.284167 0.09248527
v 0.8413531 -1.07688 0.09248527
v 1.132949 -0.7641814 0.09248527
v 1.313643 -0.3766793 0.09248527
v 1.365749 0.04769504 0.09248527
v 1.284167 0.4673986 0.2774558
v 1.076881 0.8413518 0.2774558
v 0.7641829 1.132948 0.2774558
v 0.376681 1.313643 0.2774558
v -0.04769309 1.36575 0.2774558
v 0.04769414 -1.365749 0.2774558
v 0.4673999 -1.284167 0.2774558
v 0.8413531 -1.07688 0.2774558
v 1.132949 -0.7641814 0.2774558
v 1.313643 -0.3766793 0.2774558
v 1.365749 0.04769504 0.2774558
vt 0.5974196 0.0005
vt 0.6969063 0.0005
vt 0.7963929 0.0005
vt 0.8958794 0.0005
vt 0.995366 0.0005
vt 0.0004999997 0.0005
vt 0.09998683 0.0005
vt 0.1994734 0.0005
vt 0.2989599 0.0005
vt 0.3984468 0.0005
vt 0.4979335 0.0005
vt 0.5974196 0.3335001
vt 0.6969063 0.3335001
vt 0.7963929 0.3335001
vt 0.8958794 0.3335001
vt 0.995366 0.3335001
vt 0.0004999997 0.3335001
vt 0.09998683 0.3335001
vt 0.1994734 0.3335001
vt 0.2989599 0.3335001
vt 0.3984468 0.3335001
vt 0.4979335 0.3335001
vt 0.5974196 0.6665003
vt 0.6969063 0.6665003
vt 0.7963929 0.6665003
vt 0.8958794 0.6665003
vt 0.995366 0.6665003
vt 0.0004999997 0.6665003
vt 0.09998683 0.6665003
vt 0.1994734 0.6665003
vt 0.2989599 0.6665003
vt 0.3984468 0.6665003
vt 0.4979335 0.6665003
vt 0.5974196 0.9995
vt 0.6969063 0.9995
vt 0.7963929 0.9995
vt 0.8958794 0.9995
vt 0.995366 0.9995
vt 0.0004999997 0.9995
vt 0.09998683 0.9995
vt 0.1994734 0.9995
vt 0.2989599 0.9995
vt 0.3984468 0.9995
vt 0.4979335 0.9995
vn 0.9396926 0.3420206 6.577099E-07
vn 0.7880107 0.6156615 7.876748E-07
vn 0.559193 0.8290375 9.767167E-07
vn 0.2756374 0.9612617 1.090929E-06
vn 0.1218694 0.9925461 1.065829E-06
vn 0.1908099 -0.9816269 5.251343E-07
vn 0.3420211 -0.9396923 8.56596E-07
vn 0.6156624 -0.7880101 1.063361E-06
vn 0.8290383 -0.5591918 7.561675E-07
vn 0.961262 -0.2756362 4.253443E-07
vn 0.9993908 0.03490052 4.371608E-07
vn 0.9396926 0.3420205 0
vn 0.7880108 0.6156615 0
vn 0.559193 0.8290375 0
vn 0.2756374 0.9612617 0
vn 0.1218694 0.9925461 0
vn 0.1908099 -0.9816269 0
vn 0.342021 -0.9396923 0
vn 0.6156624 -0.7880101 0
vn 0.8290383 -0.5591918 0
vn 0.961262 -0.2756361 0
vn 0.9993908 0.03490049 0
vn 0.9396926 0.3420206 -3.288549E-07
vn 0.7880107 0.6156615 -3.938374E-07
vn 0.559193 0.8290375 -4.883582E-07
vn 0.2756374 0.9612617 -5.454647E-07
vn 0.1218694 0.9925461 -5.329143E-07
vn 0.1908097 -0.981627 -2.64512E-07
vn 0.342021 -0.9396923 -4.332208E-07
vn 0.6156624 -0.7880101 -5.39557E-07
vn 0.8290384 -0.5591917 -3.820221E-07
vn 0.961262 -0.2756361 0
vn 0.9993908 0.03490047 0
vn 0.9396926 0.3420205 0
vn 0.7880108 0.6156614 0
vn 0.559193 0.8290375 0
vn 0.2756374 0.9612617 0
vn 0.1218694 0.9925461 0
vn 0.1908096 -0.981627 0
vn 0.3420209 -0.9396923 0
vn 0.6156624 -0.7880099 0
vn 0.8290384 -0.5591917 0
vn 0.961262 -0.2756361 0
vn 0.9993908 0.03490044 0
g FX_Mesh_Cylinder_Half_0
f 13/13/13 12/12/12 1/1/1
f 2/2/2 13/13/13 1/1/1
f 14/14/14 13/13/13 2/2/2
f 3/3/3 14/14/14 2/2/2
f 15/15/15 14/14/14 3/3/3
f 4/4/4 15/15/15 3/3/3
f 16/16/16 15/15/15 4/4/4
f 5/5/5 16/16/16 4/4/4
f 18/18/18 17/17/17 6/6/6
f 7/7/7 18/18/18 6/6/6
f 19/19/19 18/18/18 7/7/7
f 8/8/8 19/19/19 7/7/7
f 20/20/20 19/19/19 8/8/8
f 9/9/9 20/20/20 8/8/8
f 21/21/21 20/20/20 9/9/9
f 10/10/10 21/21/21 9/9/9
f 22/22/22 21/21/21 10/10/10
f 11/11/11 22/22/22 10/10/10
f 12/12/12 22/22/22 11/11/11
f 1/1/1 12/12/12 11/11/11
f 24/24/24 23/23/23 12/12/12
f 13/13/13 24/24/24 12/12/12
f 25/25/25 24/24/24 13/13/13
f 14/14/14 25/25/25 13/13/13
f 26/26/26 25/25/25 14/14/14
f 15/15/15 26/26/26 14/14/14
f 27/27/27 26/26/26 15/15/15
f 16/16/16 27/27/27 15/15/15
f 29/29/29 28/28/28 17/17/17
f 18/18/18 29/29/29 17/17/17
f 30/30/30 29/29/29 18/18/18
f 19/19/19 30/30/30 18/18/18
f 31/31/31 30/30/30 19/19/19
f 20/20/20 31/31/31 19/19/19
f 32/32/32 31/31/31 20/20/20
f 21/21/21 32/32/32 20/20/20
f 33/33/33 32/32/32 21/21/21
f 22/22/22 33/33/33 21/21/21
f 23/23/23 33/33/33 22/22/22
f 12/12/12 23/23/23 22/22/22
f 35/35/35 34/34/34 23/23/23
f 24/24/24 35/35/35 23/23/23
f 36/36/36 35/35/35 24/24/24
f 25/25/25 36/36/36 24/24/24
f 37/37/37 36/36/36 25/25/25
f 26/26/26 37/37/37 25/25/25
f 38/38/38 37/37/37 26/26/26
f 27/27/27 38/38/38 26/26/26
f 40/40/40 39/39/39 28/28/28
f 29/29/29 40/40/40 28/28/28
f 41/41/41 40/40/40 29/29/29
f 30/30/30 41/41/41 29/29/29
f 42/42/42 41/41/41 30/30/30
f 31/31/31 42/42/42 30/30/30
f 43/43/43 42/42/42 31/31/31
f 32/32/32 43/43/43 31/31/31
f 44/44/44 43/43/43 32/32/32
f 33/33/33 44/44/44 32/32/32
f 34/34/34 44/44/44 33/33/33
f 23/23/23 34/34/34 33/33/33
